<svg width="120" height="120" viewBox="0 0 120 120" fill="none" xmlns="http://www.w3.org/2000/svg">
<circle cx="60" cy="60" r="60" fill="white"/>
<path d="M34.1454 55.0199C34.9028 53.8495 28.5824 45.6314 26.3671 44.8153C24.1517 44 22.034 57.1816 22.6368 58.2762C23.2313 59.3709 33.3879 56.1903 34.1454 55.0199" fill="black"/>
<path d="M97.1046 54.571C97.4202 53.2866 93.1645 39.5747 91.2456 40.9734C89.3182 42.3729 84.7726 51.9826 85.7619 53.0077C86.7597 54.0337 96.7891 55.8562 97.1046 54.571Z" fill="black"/>
<path d="M84.6056 77.8356C86.9216 77.7055 88.6966 75.6025 88.5698 73.1378C88.536 72.323 88.274 71.5818 87.8852 70.9445C87.9697 71.1853 88.0289 71.4431 88.0373 71.7187C88.105 72.9882 87.3189 74.0651 86.2877 74.1225C85.2565 74.1809 84.3774 73.1978 84.3098 71.9291C84.2506 70.6596 85.0283 69.5836 86.0595 69.5253C86.2623 69.5143 86.4482 69.5523 86.6342 69.6123C85.9157 69.1289 85.0705 68.8601 84.1577 68.9108C81.8502 69.041 80.0752 71.1448 80.1936 73.6095C80.3119 76.0742 82.2897 77.9666 84.6056 77.8356Z" fill="black"/>
<path d="M84.3142 71.927C84.3818 73.1968 85.2605 74.1794 86.2912 74.1211C87.322 74.0636 88.1077 72.9873 88.0486 71.7174C88.0317 71.442 87.9726 71.1843 87.8881 70.9427C87.66 70.2879 87.1952 69.797 86.6376 69.6111C86.4517 69.5503 86.2659 69.5123 86.0631 69.5241C85.0324 69.5816 84.2551 70.658 84.3142 71.927Z" fill="white"/>
<path d="M57.4692 74.6861C56.853 76.2889 57.644 78.6286 59.301 79.0949C60.425 79.4113 61.7572 78.726 62.5899 77.6819C63.3226 78.3438 64.2884 78.6794 65.3376 78.4196C67.3192 77.9276 68.1602 75.6711 67.0611 73.8759C66.3617 72.7302 64.6881 73.8951 65.3959 75.045C66.1119 76.2173 63.9221 76.9126 63.3892 75.4296C63.3726 75.1823 63.3226 74.9359 63.231 74.6969C62.8147 73.6636 61.1495 73.8185 61.2827 75.0883C61.2993 75.184 61.3243 75.2739 61.3409 75.368L61.3326 75.3689C61.3576 75.4196 61.3576 75.4663 61.366 75.5146C61.3826 75.5629 61.3909 75.6128 61.3992 75.6611C61.4825 76.9392 58.585 77.3738 59.2427 75.6611C59.7173 74.4005 57.9521 73.4188 57.4692 74.6861" fill="black"/>
<path d="M44.7089 77.2024C42.462 76.3364 40.1658 75.6099 37.8369 75.0432C37.7467 75.0531 37.6564 75.0646 37.5744 75.0744C35.4013 75.327 35.7868 78.9188 37.9517 78.6679C40.5841 78.3628 43.2083 78.0003 45.8406 77.7027C47.4316 77.5231 47.653 75.5582 46.8083 74.6086C47.4315 75.8551 46.3326 77.8257 44.7089 77.2024Z" fill="black"/>
<path d="M37.6264 74.9877C37.692 75.0041 37.7576 75.0279 37.8314 75.0451C40.16 75.6116 42.4557 76.3389 44.7023 77.2039C46.3257 77.8279 47.4244 75.8568 46.8013 74.6105C46.6373 74.2801 46.3585 73.9981 45.924 73.8316C43.3248 72.833 40.6847 72.036 37.9954 71.394C35.8636 70.8873 35.5111 74.4843 37.6264 74.9877" fill="black"/>
</svg>
