<svg viewBox="0 0 38 19" preserveAspectRatio="XMidYMid meet" xmlns="http://www.w3.org/2000/svg">
<path style="fill: var(--text-col)" d="M6.75947 7.01804C7.13524 6.43741 3.99976 2.36047 2.90072 1.9556C1.80169 1.55114 0.751145 8.09041 1.05015 8.63346C1.34511 9.17651 6.3837 7.59867 6.75947 7.01804Z"/>
<path style="fill: var(--text-col)" d="M37.9929 6.7953C38.1494 6.15813 36.0382 -0.644238 35.0863 0.0496211C34.1301 0.743903 31.8751 5.51123 32.3659 6.01978C32.8609 6.52875 37.8364 7.43289 37.9929 6.7953Z"/>
<path style="fill: var(--text-col)" d="M31.7921 18.3367C32.9411 18.2721 33.8216 17.2289 33.7587 16.0061C33.742 15.6019 33.612 15.2342 33.4191 14.918C33.461 15.0375 33.4904 15.1654 33.4946 15.3021C33.5281 15.9319 33.1382 16.4661 32.6266 16.4947C32.115 16.5236 31.6789 16.0359 31.6454 15.4065C31.616 14.7767 32.0018 14.2429 32.5134 14.214C32.614 14.2086 32.7062 14.2274 32.7985 14.2572C32.4421 14.0173 32.0228 13.884 31.5699 13.9092C30.4252 13.9737 29.5447 15.0174 29.6034 16.2401C29.6621 17.4628 30.6432 18.4017 31.7921 18.3367Z"/>
<path style="fill: var(--text-col)" d="M18.3304 16.7743C18.0248 17.5694 18.4172 18.7301 19.2392 18.9615C19.7968 19.1184 20.4577 18.7785 20.8708 18.2605C21.2343 18.5889 21.7134 18.7553 22.2339 18.6265C23.217 18.3823 23.6342 17.2629 23.0889 16.3724C22.742 15.804 21.9117 16.3819 22.2628 16.9523C22.6181 17.5339 21.5317 17.8788 21.2674 17.1431C21.2591 17.0205 21.2343 16.8982 21.1889 16.7796C20.9823 16.267 20.1562 16.3439 20.2223 16.9738C20.2306 17.0213 20.2429 17.0659 20.2512 17.1126L20.2471 17.113C20.2595 17.1382 20.2595 17.1613 20.2636 17.1853C20.2719 17.2092 20.276 17.234 20.2801 17.258C20.3214 17.892 18.884 18.1076 19.2103 17.258C19.4457 16.6326 18.57 16.1456 18.3304 16.7743Z"/>
<path style="fill: var(--text-col)" d="M11.9997 18.0225C10.885 17.5929 9.74595 17.2325 8.59057 16.9514C8.54582 16.9562 8.50106 16.962 8.46038 16.9668C7.3823 17.0921 7.57353 18.874 8.64754 18.7495C9.95344 18.5982 11.2553 18.4184 12.5612 18.2707C13.3504 18.1816 13.4603 17.2069 13.0412 16.7358C13.3504 17.3541 12.8052 18.3317 11.9997 18.0225Z"/>
<path style="fill: var(--text-col)" d="M8.4865 16.9239C8.51904 16.932 8.55158 16.9438 8.58819 16.9524C9.74337 17.2334 10.8823 17.5942 11.9968 18.0233C12.8021 18.3329 13.3472 17.355 13.0381 16.7368C12.9567 16.5729 12.8184 16.4329 12.6028 16.3504C11.3134 15.8549 10.0037 15.4596 8.66954 15.1411C7.61198 14.8897 7.43708 16.6741 8.4865 16.9239Z"/>
</svg>
