<svg viewBox="0 0 100 100" preserveAspectRatio="XMidYMid meet" xmlns="http://www.w3.org/2000/svg">
<ellipse style="fill: var(--secondary-col)" cx="41.4722" cy="58.6111" rx="40.9722" ry="41.3889"/>
<path style="fill: var(--text-col)" fill-rule="evenodd" clip-rule="evenodd" d="M58.0931 9.0288C51.4309 9.79483 45.4775 13.1799 41.508 18.4591C36.0731 25.6874 35.0433 35.3972 38.8579 43.4472C39.7688 45.3694 40.703 46.8529 42.0709 48.5501C43.8837 50.7992 44.3377 51.459 45.0354 52.8596C46.3116 55.421 46.6521 57.1889 46.6529 61.2564C46.6532 62.8058 46.7206 64.3587 46.8049 64.7555C47.1613 66.4337 48.5317 68.213 49.9893 68.8898L50.691 69.2156V70.6545C50.691 71.446 50.7528 72.4195 50.8284 72.8179C51.291 75.2569 53.3256 77.2539 55.7531 77.6513C56.7827 77.82 64.7869 77.82 65.8165 77.6513C68.244 77.2539 70.2787 75.2569 70.7412 72.8179C70.8169 72.4195 70.8786 71.446 70.8786 70.6545V69.2156L71.5804 68.8898C72.8678 68.292 74.1733 66.7404 74.6841 65.2007C74.7582 64.978 74.8627 63.1303 74.9168 61.0948C75.0057 57.7501 75.0478 57.2699 75.3556 56.1054C76.058 53.448 76.9958 51.6917 79.1592 48.9826C80.8365 46.8821 81.763 45.4413 82.6601 43.5382C85.761 36.9606 85.7622 29.4299 82.6632 22.8068C80.3425 17.8467 75.9412 13.4658 70.9728 11.1705C66.9789 9.32542 62.2919 8.54607 58.0931 9.0288ZM64.284 13.2643C71.0882 14.515 76.8586 19.1977 79.4364 25.5607C82.3253 32.6917 81.077 40.2834 75.9961 46.4828C73.204 49.8894 71.5701 53.3295 71.0855 56.8219L70.9967 57.4611H69.9283H68.8599V48.1101V38.7591L65.6316 32.3037C62.4775 25.9968 62.3897 25.8404 61.8177 25.5051C61.0761 25.0705 60.493 25.0707 59.7501 25.5061C59.1756 25.8428 59.0928 25.9904 55.9363 32.31L52.7098 38.7697V48.1155V57.4611H51.6484H50.587L50.4948 56.8219C49.9908 53.3282 48.4977 50.0954 45.9107 46.8966C44.1693 44.7433 43.3812 43.559 42.6053 41.9297C41.8392 40.3209 41.3714 38.9306 40.9739 37.081C40.5925 35.3069 40.5541 31.5218 40.8988 29.6704C41.4144 26.9009 42.6022 23.9432 44.0417 21.844C47.0551 17.4501 51.5774 14.3598 56.4108 13.3913C58.9316 12.8863 61.9616 12.8374 64.284 13.2643ZM28.2827 19.8448C26.9918 20.3054 26.554 21.8178 27.3795 22.9648C27.7756 23.5148 30.5138 26.1708 30.8856 26.3654C31.3269 26.5963 32.2795 26.5706 32.775 26.3144C33.551 25.9131 33.96 24.927 33.7202 24.0362C33.6098 23.6267 33.2088 23.1259 32.0108 21.9023C29.9014 19.7474 29.3732 19.4559 28.2827 19.8448ZM92.0084 19.8014C91.6753 19.8972 91.0186 20.4558 89.767 21.7084C88.3559 23.1203 87.9671 23.5905 87.8511 24.0254C87.6102 24.9283 88.0154 25.9113 88.7946 26.3144C89.29 26.5705 90.2426 26.5963 90.6841 26.3655C91.1252 26.135 93.9872 23.3037 94.3174 22.7712C95.2778 21.2224 93.7771 19.2921 92.0084 19.8014ZM62.4994 35.1837L64.1443 38.4765L63.4403 38.6894C63.0531 38.8066 62.2973 38.9533 61.7605 39.0155C60.6671 39.1423 59.1865 39.0093 58.1293 38.6894L57.4253 38.4765L59.0702 35.1837C59.9748 33.3727 60.7465 31.891 60.7848 31.891C60.8232 31.891 61.5949 33.3727 62.4994 35.1837ZM27.4058 33.4863C26.8433 33.7856 26.3365 34.6131 26.3334 35.2372C26.3303 35.8716 26.8095 36.6525 27.4084 36.9891C27.8734 37.2505 28.1195 37.2742 30.3688 37.2742C33.1661 37.2742 33.583 37.1545 34.1212 36.197C34.4862 35.5476 34.4798 34.9203 34.1013 34.2601C33.5699 33.3333 33.2178 33.2368 30.3688 33.2368C28.1985 33.2368 27.8138 33.2692 27.4058 33.4863ZM88.2379 33.4863C87.6754 33.7856 87.1686 34.6131 87.1655 35.2372C87.1624 35.8716 87.6416 36.6525 88.2405 36.9891C88.7055 37.2505 88.9516 37.2742 91.2009 37.2742C93.9982 37.2742 94.4151 37.1545 94.9533 36.197C95.3183 35.5476 95.3119 34.9203 94.9334 34.2601C94.402 33.3333 94.0499 33.2368 91.2009 33.2368C89.0306 33.2368 88.6459 33.2692 88.2379 33.4863ZM58.1872 42.8653C59.9823 43.2441 63.2606 43.0932 64.6273 42.5688C64.7962 42.5041 64.8223 43.4983 64.8223 49.9775V57.4611H60.7848H56.7473V49.9775C56.7473 43.4983 56.7734 42.5041 56.9423 42.5688C57.0496 42.61 57.6097 42.7433 58.1872 42.8653ZM31.1763 44.0258C30.8432 44.1216 30.1865 44.6802 28.9349 45.9328C27.5238 47.3446 27.135 47.8148 27.019 48.2498C26.7781 49.1527 27.1833 50.1357 27.9625 50.5387C28.4579 50.7948 29.4105 50.8207 29.852 50.5899C30.2931 50.3593 33.1551 47.5281 33.4853 46.9955C34.4457 45.4468 32.945 43.5165 31.1763 44.0258ZM89.1148 44.0692C87.8239 44.5298 87.3861 46.0422 88.2116 47.1892C88.6077 47.7392 91.3459 50.3951 91.7177 50.5897C92.159 50.8207 93.1116 50.795 93.6071 50.5387C94.3831 50.1374 94.7921 49.1514 94.5523 48.2606C94.4419 47.8511 94.0409 47.3503 92.8429 46.1267C90.7335 43.9718 90.2053 43.6803 89.1148 44.0692ZM70.8786 62.7251C70.8786 64.1745 70.6144 64.794 69.8014 65.2509C69.2997 65.5328 69.2028 65.5359 60.7848 65.5359C52.3668 65.5359 52.2699 65.5328 51.7682 65.2509C50.9552 64.794 50.691 64.1745 50.691 62.7251V61.4985H60.7848H70.8786V62.7251ZM66.8411 70.8672C66.8411 72.3895 66.5889 72.9966 65.7639 73.4602C65.2756 73.7347 65.0903 73.7453 60.7848 73.7453C56.4793 73.7453 56.294 73.7347 55.8057 73.4602C54.9807 72.9966 54.7285 72.3895 54.7285 70.8672V69.5733H60.7848H66.8411V70.8672Z"/>
</svg>
