<svg viewBox="0 0 166 153" preserveAspectRatio="XMidYMid meet" xmlns="http://www.w3.org/2000/svg">
<g clip-path="url(#clip0_54_174)">
<path style="fill: var(--bg-col)" d="M39.7512 46.9732C25.6491 45.8794 -12.3907 189.137 -0.668862 216.947C9.33511 240.675 52.9271 245.778 74.0298 247.831C99.7134 250.329 146.107 253.44 159.153 234.613C171.611 216.627 161.837 58.4117 145.382 56.2447C136.821 55.12 123.92 79.6223 123.92 79.6223C123.92 79.6223 109.538 69.6903 88.2329 68.8957C71.9526 68.2921 57.0814 74.081 57.0814 74.081C57.0814 74.081 48.8795 47.6852 39.7512 46.9732"/>
<path style="fill: var(--text-col)" d="M59.9672 116.802C59.6753 120.403 56.4585 123.086 52.7814 122.802C49.1043 122.513 46.3591 119.366 46.651 115.765C46.943 112.163 50.1597 109.48 53.8368 109.764C57.5139 110.053 60.2592 113.2 59.9672 116.802Z"/>
<path style="fill: var(--bg-col)" d="M58.8104 114.588C58.6645 116.44 57.2161 117.843 55.5769 117.714C53.9376 117.585 52.7362 115.981 52.8878 114.129C53.0337 112.271 54.4878 110.873 56.1214 111.002C57.7607 111.126 58.962 112.736 58.8104 114.588Z"/>
<path style="fill: var(--text-col)" d="M125.223 121.878C124.931 125.475 121.709 128.163 118.032 127.879C114.355 127.59 111.609 124.437 111.901 120.841C112.193 117.24 115.416 114.552 119.093 114.841C122.77 115.125 125.515 118.277 125.223 121.878Z"/>
<path style="fill: var(--bg-col)" d="M124.662 119.711C124.51 121.564 123.062 122.962 121.423 122.838C119.789 122.709 118.582 121.105 118.734 119.247C118.885 117.395 120.334 115.997 121.967 116.12C123.607 116.249 124.814 117.854 124.662 119.711Z"/>
<path style="fill: var(--text-col)" d="M75.8153 117.74C74.5353 119.943 75.3213 123.498 77.8475 124.515C80.9857 125.774 85.8697 122.327 84.9154 118.942C84.4663 117.358 81.8053 117.24 81.766 119.108C81.7043 122.162 84.1687 125.087 87.509 124.773C90.737 124.463 92.4998 121.362 91.1244 118.535C90.243 116.729 87.3743 118.076 88.2613 119.887C89.2437 121.904 84.8705 122.399 84.9379 119.355C83.8881 119.412 82.8382 119.469 81.7884 119.525C82.4396 121.816 76.9549 122.043 78.4257 119.52C79.4362 117.792 76.8314 116.002 75.8153 117.74"/>
<path style="fill: var(--secondary-col)" d="M77.0109 83.0742C76.9154 84.3331 76.719 85.6075 76.1632 86.7838C75.8207 87.4958 75.3267 88.1975 74.5407 88.5793C72.9239 89.3893 70.6447 88.5793 69.55 87.2688C68.4553 85.9531 68.2476 84.3073 68.096 82.7336C67.8041 79.5399 67.6581 76.3462 67.6132 73.1473C67.5963 72.4405 67.5907 71.7336 67.5851 71.0216C67.5739 70.3148 67.5795 69.5976 67.5851 68.8805C70.2068 68.3078 73.1485 67.766 76.326 67.3687C76.3653 68.0653 76.4045 68.7566 76.4551 69.4583C76.4944 70.1445 76.5337 70.8462 76.5842 71.5376C76.6909 73.2402 76.7975 74.9325 76.9042 76.6351C77.0389 78.7918 77.1737 80.933 77.0109 83.0742"/>
<path style="fill: var(--secondary-col)" d="M94.8405 67.3475L94.5037 71.4854C94.3016 73.9774 94.0939 76.4539 93.8918 78.946C93.7178 81.0871 93.5325 83.2335 93.061 85.3282C92.7915 86.5665 92.4041 87.7945 91.6911 88.8831C91.2533 89.5487 90.6638 90.1678 89.8217 90.4464C88.1039 91.0191 85.9762 89.9047 85.0836 88.4549C84.1797 86.9999 84.2078 85.3385 84.2976 83.7546C84.5278 79.4567 85.0106 75.1899 85.645 70.9281C85.746 70.2419 85.8415 69.5506 85.965 68.854C86.0604 68.1627 86.1727 67.4661 86.2906 66.7799C86.9586 66.7799 87.6379 66.8006 88.3172 66.8212C90.574 66.9038 92.7465 67.0946 94.8405 67.3475"/>
<path style="fill: var(--secondary-col)" d="M112.592 71.7277C112.463 72.4243 112.334 73.1208 112.193 73.8173C112.058 74.5138 111.929 75.2 111.8 75.8966C111.486 77.5166 111.183 79.1367 110.874 80.7568C110.47 82.867 110.071 84.9876 109.386 87.0256C108.982 88.2329 108.471 89.4092 107.635 90.4153C107.135 91.0344 106.489 91.5865 105.619 91.7774C103.845 92.1695 101.841 90.8487 101.111 89.3164C100.376 87.784 100.572 86.133 100.831 84.5696C101.448 80.731 102.268 76.9233 103.211 73.162C103.385 72.4862 103.553 71.8154 103.739 71.1395C103.896 70.4688 104.081 69.7929 104.272 69.1222C107.343 69.891 110.133 70.7939 112.592 71.7277"/>
<path style="fill: var(--text-col)" d="M108.96 247.661C94.8576 247.78 81.4684 246.479 74.2377 245.773C66.8667 245.05 54.2578 243.822 41.4806 240.819C25.2115 236.996 8.65053 230.289 2.20016 218.077L2.19451 218.056C1.85768 217.437 1.56013 216.797 1.28505 216.152C-0.124043 212.809 -0.786462 207.35 -0.74155 200.153C-0.74155 199.585 -0.724731 199.012 -0.707889 198.419C-0.404738 183.142 2.86818 160.755 8.79085 134.684C17.1275 97.9898 28.3329 64.2779 36.052 52.7206C38.3874 49.2174 39.5495 49.0523 39.5888 49.0419C44.8827 49.465 51.8158 64.283 55.0551 74.6794C55.2235 75.2417 55.6276 75.7009 56.161 75.9486C56.6943 76.2014 57.3118 76.2169 57.8564 76.0105C57.935 75.9744 61.7749 74.5039 67.6133 73.147C70.2462 72.5433 73.3003 71.9448 76.5844 71.5372C79.4531 71.1658 82.5126 70.9388 85.6452 70.9284C86.476 70.9233 87.3126 70.9336 88.149 70.9697C90.3441 71.0471 92.4773 71.2328 94.5039 71.4856C97.6196 71.8932 100.528 72.4711 103.211 73.1625C106.417 73.9725 109.297 74.9322 111.8 75.897C118.61 78.549 122.63 81.2628 122.697 81.3196C123.202 81.6601 123.831 81.784 124.426 81.6343C125.021 81.4899 125.521 81.1029 125.807 80.5766C130.837 71.0213 140.05 57.9059 144.962 58.2877L145.096 58.298C145.242 58.3187 146.584 58.6128 148.532 62.89C154.387 75.6958 159.726 112.013 161.82 153.274C163.909 194.395 162.135 226.615 157.402 233.441C149.689 244.576 128.62 247.491 108.96 247.661V247.661ZM166.053 153.062C164.414 120.888 159.861 77.5222 152.4 61.1977C150.368 56.7554 148.229 54.5265 145.663 54.1911C145.562 54.1756 145.444 54.1653 145.338 54.155C136.9 53.4997 126.84 69.9842 123.118 76.6657C121.046 75.4533 117.442 73.5494 112.592 71.7282C110.133 70.7943 107.343 69.8914 104.272 69.1226C101.375 68.39 98.2203 67.7708 94.8408 67.3477C92.7468 67.0949 90.5742 66.904 88.3174 66.8215C87.6382 66.8009 86.9588 66.7802 86.2908 66.7802C82.827 66.7596 79.4755 66.9866 76.3261 67.3684C73.1486 67.7657 70.2069 68.3074 67.5853 68.8801C63.5938 69.7675 60.3995 70.7479 58.4346 71.3928C55.9869 64.1283 48.9022 45.6058 39.9256 44.9092C37.7923 44.7441 35.6478 46.1475 33.3797 49.2071C25.4866 59.8149 13.849 93.8674 5.06325 132.011C2.41349 143.496 -4.27831 174.603 -4.95198 197.299C-4.95759 197.475 -4.9576 197.64 -4.96322 197.82C-4.98006 198.378 -4.99128 198.93 -4.98005 199.482C-5.0025 199.987 -5.00249 200.498 -4.99688 200.999C-4.99688 201.205 -5.00249 201.417 -4.99688 201.623C-4.94074 208.243 -4.25022 213.892 -2.6278 217.741C-2.59973 217.798 -2.5829 217.849 -2.55483 217.901C-2.48746 218.087 -2.40328 218.257 -2.32468 218.433C-2.07767 218.969 -1.81382 219.501 -1.53874 220.022C-1.26365 220.563 -0.954901 221.084 -0.62368 221.6C-0.52263 221.786 -0.421536 221.962 -0.29803 222.137C13.8322 244.06 56.9581 248.254 73.8167 249.9C77.0222 250.21 80.3345 250.509 83.7309 250.772C113.395 253.078 149.105 252.8 160.9 235.774C167.327 226.507 167.777 186.975 166.053 153.062"/>
<path style="fill: var(--secondary-col)" d="M31.3363 76.7381C30.6065 75.0252 36.5404 56.3428 39.8751 57.9783C43.2097 59.619 51.5688 72.8324 50.1429 74.3751C48.717 75.9178 32.0661 78.4459 31.3363 76.7381Z"/>
<path style="fill: var(--secondary-col)" d="M149.587 86.6389C150.34 84.8382 146.32 64.0817 143.014 65.7121C139.707 67.3476 130.641 80.3546 132.005 82.0469C133.363 83.7341 148.835 88.4344 149.587 86.6389Z"/>
<path style="fill: var(--secondary-col)" d="M53.4942 132.316C53.0731 137.511 46.8473 141.267 39.5886 140.705C32.3242 140.137 26.7832 135.468 27.2043 130.267C27.6253 125.072 33.8567 121.316 41.1155 121.878C48.3743 122.446 53.9152 127.115 53.4942 132.316"/>
<path style="fill: var(--secondary-col)" d="M140.74 139.1C140.319 144.296 134.088 148.052 126.829 147.49C119.57 146.927 114.024 142.253 114.45 137.057C114.871 131.856 121.097 128.1 128.356 128.663C135.62 129.23 141.161 133.9 140.74 139.1"/>
<path style="fill: var(--primary-col)" d="M130.646 32.3408C128.676 29.4825 125.465 25.6851 124.297 22.4708C122.158 16.5941 120.367 10.0623 123.786 4.71704C124.364 3.8193 125.813 2.29208 126.834 1.84321C129.321 0.75972 132.151 2.92154 134.076 4.73251C136.608 7.10071 138.494 9.96423 137.866 13.2302C139.022 10.6298 141.93 8.6382 144.911 8.00359C147.886 7.36381 151.968 8.77239 153.371 11.2696C154.382 13.0754 153.629 15.0669 152.9 16.9811C151.738 20.0406 149.195 22.5275 146.281 24.3488C143.373 26.1753 133.29 31.3554 130.646 32.3408Z"/>
<path style="fill: var(--text-col)" d="M132.072 31.3497C128.148 25.8446 124.667 20.7109 123.825 13.9985C123.348 10.2114 123.595 4.90749 128.406 4.45862C132.931 4.03554 136.445 8.9783 136.092 13.0285C135.923 14.9426 138.584 15.4741 139.516 13.8591C142.941 7.89995 154.46 8.64809 151.249 16.3563C149.823 19.7719 146.971 22.0215 143.693 23.9356C139.336 26.4689 134.694 28.9197 129.967 30.8235C127.862 31.6748 129.22 34.7086 131.331 33.8573C140.229 30.2714 153.45 24.7766 155.375 15.0097C156.24 10.6345 153.237 7.3582 148.566 6.45529C143.277 5.43372 138.607 8.44686 136.215 12.6054C137.355 12.8788 138.494 13.1575 139.634 13.4361C140.212 6.89905 130.831 -4.80783 123.752 2.12134C114.59 11.0833 123.438 25.2151 129.226 33.3361C130.489 35.1058 133.324 33.1091 132.072 31.3497"/>
</g>
<defs>
<clipPath id="clip0_54_174">
<rect width="166" height="153"/>
</clipPath>
</defs>
</svg>
