<svg viewBox="0 0 100 100" preserveAspectRatio="XMidYMid meet" xmlns="http://www.w3.org/2000/svg">
<ellipse style="fill: var(--secondary-col)" cx="40.9722" cy="58.6111" rx="40.9722" ry="41.3889"/>
<path style="fill: var(--text-col)" fill-rule="evenodd" clip-rule="evenodd" d="M28.3698 25.134C26.0566 25.5929 24.0902 27.6203 23.6419 30.0088C23.4527 31.0162 23.4527 67.9653 23.6419 68.9727C24.1008 71.4177 26.0552 73.3922 28.4753 73.8558C29.4784 74.0481 86.5216 74.0481 87.5247 73.8558C89.9448 73.3922 91.8992 71.4177 92.3581 68.9727C92.5473 67.9653 92.5473 31.0162 92.3581 30.0088C91.8992 27.5638 89.9448 25.5894 87.5247 25.1257C86.6227 24.9528 29.2422 24.9608 28.3698 25.134ZM73.7005 40.9989C65.6199 49.1194 61.6082 53.0579 61.1015 53.3683C59.2131 54.5247 56.7869 54.5247 54.8985 53.3683C54.3918 53.0579 50.3801 49.1194 42.2995 40.9989L30.4439 29.0849H58H85.5561L73.7005 40.9989ZM39.6063 44.0367L44.9957 49.4909L38.2588 56.3063C34.5534 60.0547 30.6274 63.9825 29.5343 65.0345L27.5468 66.9472V49.4902V32.0332L30.8818 35.3078C32.7161 37.1089 36.642 41.0369 39.6063 44.0367ZM88.4205 58.2374L88.3858 66.9839L79.6946 58.2345L71.0033 49.4849L79.6946 40.751L88.3858 32.017L88.4205 40.754C88.4396 45.5592 88.4396 53.4267 88.4205 58.2374ZM49.3113 53.8549C51.7498 56.3376 53.1627 57.3259 55.1703 57.9535C56.0162 58.218 56.4773 58.2695 58 58.2695C60.0716 58.2695 61.1522 58.0146 62.7162 57.1577C63.8745 56.5229 64.4864 56.0173 66.45 54.0722L68.0951 52.4426L71.3009 55.5864C73.0641 57.3155 76.9926 61.2459 80.0308 64.3205L85.5549 69.9108L57.9993 69.905L30.4439 69.8991L39.1094 61.1924C43.8755 56.4038 47.8181 52.4857 47.8707 52.4857C47.9232 52.4857 48.5715 53.1018 49.3113 53.8549Z"/>
</svg>
