<svg viewBox="0 0 100 100" preserveAspectRatio="XMidYMid meet" xmlns="http://www.w3.org/2000/svg">
<g clip-path="url(#clip0_97_2746)">
<path d="M50 100C77.6142 100 100 77.6142 100 50C100 22.3858 77.6142 0 50 0C22.3858 0 0 22.3858 0 50C0 77.6142 22.3858 100 50 100Z" fill="#012169"/>
<path fill-rule="evenodd" clip-rule="evenodd" d="M2.08199 35.6759L26.0304 50L2.08203 64.3241C4.49543 72.4093 8.89931 79.636 14.7251 85.4355L50 64.3368L85.2749 85.4355C91.1007 79.636 95.5046 72.4093 97.918 64.3241L73.9696 50L97.918 35.6759C95.5046 27.5907 91.1008 20.364 85.275 14.5645L50 35.6633L14.725 14.5645C8.89923 20.364 4.49537 27.5907 2.08199 35.6759Z" fill="white"/>
<path fill-rule="evenodd" clip-rule="evenodd" d="M95.5476 29.3447L60.9303 50.0001L95.5475 70.6554C93.9899 74.0847 92.0564 77.3069 89.7997 80.2696L50 56.522L10.2003 80.2696C7.94356 77.3069 6.01008 74.0847 4.45248 70.6554L39.0697 50.0001L4.4524 29.3447C6.00998 25.9155 7.94345 22.6932 10.2002 19.7305L50 43.4782L89.7998 19.7305C92.0566 22.6932 93.99 25.9155 95.5476 29.3447Z" fill="#C8102E"/>
<path fill-rule="evenodd" clip-rule="evenodd" d="M41.0499 99.2012V57.0754H0.496745C0.169344 54.764 0 52.4018 0 50C0 46.3959 0.381326 42.8809 1.10583 39.4931H41.0499V0.798776C43.9538 0.274003 46.9449 0 50 0C52.9282 0 55.7976 0.251713 58.5878 0.734682V39.4931H98.8942C99.6187 42.8809 100 46.3959 100 50C100 52.4018 99.8307 54.764 99.5033 57.0754H58.5878V99.2653C55.7976 99.7483 52.9282 100 50 100C46.9449 100 43.9538 99.726 41.0499 99.2012Z" fill="#C8102E"/>
<path fill-rule="evenodd" clip-rule="evenodd" d="M1.55108 37.5941H39.3129V1.14465C40.7148 0.839392 42.1388 0.592944 43.5819 0.40802V41.8549H0.660093C0.896337 40.413 1.19427 38.9918 1.55108 37.5941ZM39.3129 98.8552V58.8984H0.789473C0.537834 57.4975 0.344547 56.0763 0.212219 54.6375H43.5819V99.5918C42.1388 99.4069 40.7148 99.1605 39.3129 98.8552ZM99.2105 58.8984H60.658V98.8615C59.256 99.1659 57.8321 99.4115 56.389 99.5956V54.6375H99.7878C99.6555 56.0763 99.4622 57.4975 99.2105 58.8984ZM60.658 1.13832V37.5941H98.4489C98.8057 38.9918 99.1037 40.413 99.3399 41.8549H56.389V0.404297C57.8321 0.588356 59.256 0.833934 60.658 1.13832Z" fill="white"/>
</g>
<defs>
<clipPath id="clip0_97_2746">
<rect width="100" height="100" fill="white"/>
</clipPath>
</defs>
</svg>
