<svg viewBox="0 0 80 80" preserveAspectRatio="XMidYMid meet" xmlns="http://www.w3.org/2000/svg">
<path d="M40.7308 39.9995C40.7308 36.4633 42.2917 33.072 45.07 30.5715C47.8483 28.071 51.6165 26.6663 55.5456 26.6663C59.4747 26.6663 63.2429 28.071 66.0212 30.5715C68.7995 33.072 70.3603 36.4633 70.3603 39.9995C70.3603 43.5357 68.7995 46.9271 66.0212 49.4276C63.2429 51.9281 59.4747 53.3328 55.5456 53.3328C51.6165 53.3328 47.8483 51.9281 45.07 49.4276C42.2917 46.9271 40.7308 43.5357 40.7308 39.9995Z" fill="#1ABCFE"/>
<path d="M11.1014 66.6668C11.1014 63.1306 12.6623 59.7392 15.4406 57.2387C18.2189 54.7382 21.9871 53.3335 25.9162 53.3335H40.7309V66.6668C40.7309 70.203 39.1701 73.5943 36.3918 76.0948C33.6135 78.5953 29.8453 80 25.9162 80C21.9871 80 18.2189 78.5953 15.4406 76.0948C12.6623 73.5943 11.1014 70.203 11.1014 66.6668H11.1014Z" fill="#0ACF83"/>
<path d="M40.7308 0V26.6665H55.5456C59.4747 26.6665 63.2429 25.2618 66.0212 22.7613C68.7995 20.2608 70.3603 16.8695 70.3603 13.3333C70.3603 9.79707 68.7995 6.4057 66.0212 3.90523C63.2429 1.40475 59.4747 0 55.5456 0L40.7308 0Z" fill="#FF7262"/>
<path d="M11.1014 13.3333C11.1014 16.8695 12.6623 20.2608 15.4406 22.7613C18.2189 25.2618 21.9871 26.6665 25.9162 26.6665H40.7309V0H25.9162C21.9871 0 18.2189 1.40475 15.4406 3.90523C12.6623 6.4057 11.1014 9.79707 11.1014 13.3333H11.1014Z" fill="#F24E1E"/>
<path d="M11.1014 39.9995C11.1014 43.5357 12.6623 46.9271 15.4406 49.4276C18.2189 51.9281 21.9871 53.3328 25.9162 53.3328H40.7309V26.6663H25.9162C21.9871 26.6663 18.2189 28.071 15.4406 30.5715C12.6623 33.072 11.1014 36.4633 11.1014 39.9995H11.1014Z" fill="#A259FF"/>
</svg>
