<svg viewBox="0 0 100 100" preserveAspectRatio="XMidYMid meet" xmlns="http://www.w3.org/2000/svg">
<ellipse style="fill: var(--secondary-col)" cx="40.9722" cy="58.6111" rx="40.9722" ry="41.3889"/>
<path style="fill: var(--text-col)" fill-rule="evenodd" clip-rule="evenodd" d="M43.6124 12.145C42.3638 12.5451 41.3839 13.3938 40.8364 14.5493L40.5 15.2593V20.4232V25.587L40.8364 26.297C41.2663 27.2041 42.1208 28.0538 43.0288 28.477C43.6461 28.7646 43.9558 28.8158 45.3307 28.8574L46.9193 28.9056V45.016V61.1264L45.3307 61.1745C43.9558 61.2161 43.6461 61.2674 43.0288 61.555C42.1208 61.9782 41.2663 62.8279 40.8364 63.7349L40.5 64.4449V69.6088V74.7726L40.8364 75.4826C41.2655 76.3881 42.1192 77.238 43.0288 77.6651L43.7421 78H48.9294H54.1167L54.83 77.6651C55.7396 77.238 56.5933 76.3881 57.0224 75.4826L57.3588 74.7726V69.6088V64.4449L57.0224 63.7349C56.5925 62.8279 55.738 61.9782 54.83 61.555C54.2127 61.2674 53.903 61.2161 52.5281 61.1745L50.9395 61.1264V55.3304V49.5343L55.446 49.5336C58.6943 49.533 60.2965 49.4811 61.185 49.3478C65.1457 48.7534 68.8305 46.5547 71.1866 43.3798C71.9773 42.3144 72.4837 41.317 75.4682 34.9467L78.2808 28.9435L80.2694 28.8777C82.0591 28.8183 82.3293 28.7784 82.9712 28.4781C83.8799 28.0531 84.7341 27.2033 85.1636 26.297L85.5 25.587V20.4232V15.2593L85.1636 14.5493C84.7345 13.6438 83.8808 12.794 82.9712 12.3668L82.2579 12.0319H77.0706H71.8833L71.17 12.3668C70.2604 12.794 69.4067 13.6438 68.9776 14.5493L68.6412 15.2593V20.4232V25.587L68.9776 26.297C69.7071 27.8365 71.0908 28.7366 72.9297 28.8679L73.9895 28.9435L71.4984 34.2603C70.1283 37.1845 68.8082 39.9114 68.565 40.32C67.9979 41.2721 66.5283 42.8271 65.5293 43.5323C64.0839 44.5525 62.3544 45.2619 60.6657 45.5271C60.2021 45.5999 57.8241 45.6599 55.3811 45.6604L50.9395 45.6615V37.2835V28.9056L52.5281 28.8574C53.903 28.8158 54.2127 28.7646 54.83 28.477C55.738 28.0538 56.5925 27.2041 57.0224 26.297L57.3588 25.587V20.4232V15.2593L57.0224 14.5493C56.5933 13.6438 55.7396 12.794 54.83 12.3668L54.1167 12.0319L49.1239 12.0053C45.3456 11.9853 44.0049 12.0193 43.6124 12.145ZM53.3775 15.9952C53.6003 16.217 53.6003 24.6294 53.3775 24.8512C53.1547 25.073 44.7041 25.073 44.4813 24.8512C44.2585 24.6294 44.2585 16.217 44.4813 15.9952C44.7041 15.7734 53.1547 15.7734 53.3775 15.9952ZM81.5187 15.9952C81.7415 16.217 81.7415 24.6294 81.5187 24.8512C81.2959 25.073 72.8453 25.073 72.6225 24.8512C72.3997 24.6294 72.3997 16.217 72.6225 15.9952C72.8453 15.7734 81.2959 15.7734 81.5187 15.9952ZM53.3775 65.1808C53.6003 65.4026 53.6003 73.815 53.3775 74.0368C53.1547 74.2585 44.7041 74.2585 44.4813 74.0368C44.2585 73.815 44.2585 65.4026 44.4813 65.1808C44.7041 64.959 53.1547 64.959 53.3775 65.1808Z"/>
</svg>
