<svg viewBox="0 0 100 100" preserveAspectRatio="XMidYMid meet" xmlns="http://www.w3.org/2000/svg">
<ellipse style="fill: var(--secondary-col)" cx="40.9722" cy="58.6111" rx="40.9722" ry="41.3889"/>
<path style="fill: var(--text-col)" fill-rule="evenodd" clip-rule="evenodd" d="M12.1672 1.31011C11.8235 1.49163 11.4873 1.83753 11.3024 2.19982C11.0174 2.75837 11 3.08035 11 7.76758C11 12.4568 11.0174 12.7765 11.3027 13.3359C11.4976 13.7181 11.8171 14.0375 12.1992 14.2324C12.7587 14.5177 13.0784 14.5352 17.7676 14.5352C22.4568 14.5352 22.7765 14.5177 23.3359 14.2324C24.2338 13.7743 24.5352 13.0582 24.5352 11.383V10.0234L29.1597 10.0313C33.5565 10.0388 33.7658 10.0517 33.4126 10.2944C27.1661 14.5857 22.8951 20.6673 21.0796 27.8562C20.8414 28.7993 20.5685 30.2314 20.473 31.0389C20.3775 31.8463 20.2732 32.6422 20.2414 32.8076C20.2044 32.9995 19.8273 33.2916 19.1996 33.6143C16.7921 34.8525 15.3319 37.7755 15.7775 40.4645C16.2706 43.4404 18.4797 45.6574 21.4404 46.1482C24.2312 46.6106 27.2592 45.0145 28.4602 42.448C29.3962 40.4479 29.385 38.3537 28.4283 36.4585C27.858 35.3286 26.5211 33.9665 25.5297 33.5048L24.7947 33.1627L24.8932 32.1017C25.511 25.4547 29.6668 18.5366 35.5137 14.4215C37.0084 13.3693 39.9185 11.912 41.7195 11.3135C42.61 11.0175 43.3599 10.7754 43.3862 10.7754C43.4123 10.7754 43.6513 11.1112 43.9174 11.5216C45.0772 13.3117 47.3398 14.5315 49.5 14.5315C51.6602 14.5315 53.9228 13.3117 55.0826 11.5216C55.3487 11.1112 55.5877 10.7754 55.6138 10.7754C55.6402 10.7754 56.39 11.0175 57.2805 11.3135C59.0815 11.912 61.9916 13.3693 63.4863 14.4215C69.3332 18.5366 73.489 25.4547 74.1068 32.1017L74.2053 33.1627L73.4703 33.5048C72.4789 33.9665 71.142 35.3286 70.5717 36.4585C68.5118 40.539 71.021 45.3925 75.581 46.1482C79.9673 46.875 83.9688 42.822 83.2135 38.4173C82.8618 36.366 81.5433 34.5106 79.8004 33.6143C79.1727 33.2916 78.7956 32.9995 78.7586 32.8076C78.7268 32.6422 78.6225 31.8463 78.527 31.0389C78.0872 27.3187 76.5488 22.9847 74.4442 19.5367C72.3794 16.1538 69.1204 12.7383 65.8945 10.5764L65.0695 10.0234H69.7671H74.4648V11.383C74.4648 13.0582 74.7662 13.7743 75.6641 14.2324C76.2235 14.5177 76.5432 14.5352 81.2324 14.5352C85.9216 14.5352 86.2413 14.5177 86.8008 14.2324C87.1829 14.0375 87.5024 13.7181 87.6973 13.3359C87.9826 12.7765 88 12.4568 88 7.76758C88 3.0784 87.9826 2.75867 87.6973 2.19921C87.5024 1.81707 87.1829 1.49764 86.8008 1.30274C86.2413 1.01745 85.9216 1 81.2324 1C76.5432 1 76.2235 1.01745 75.6641 1.30274C74.7662 1.76083 74.4648 2.47699 74.4648 4.15219V5.51172L65.1782 5.51112L55.8916 5.51067L55.3857 4.53207C54.128 2.09996 51.179 0.650943 48.4422 1.12016C46.3707 1.47538 44.5179 2.78484 43.6143 4.53207L43.1084 5.51067L33.8218 5.51112L24.5352 5.51172V4.15219C24.5352 2.47699 24.2338 1.76083 23.3359 1.30274C22.7754 1.01684 22.4641 1.0003 17.736 1.00662C13.0488 1.01293 12.6935 1.03218 12.1672 1.31011ZM20.0234 7.76758V10.0234H17.7676H15.5117V7.76758V5.51172H17.7676H20.0234V7.76758ZM50.5566 5.81446C51.2239 6.15494 51.7559 7.02134 51.7559 7.76758C51.7559 8.9119 50.6443 10.0234 49.5 10.0234C48.3557 10.0234 47.2441 8.9119 47.2441 7.76758C47.2441 7.04435 47.7764 6.15704 48.4113 5.82182C49.137 5.43878 49.8157 5.43652 50.5566 5.81446ZM83.4883 7.76758V10.0234H81.2324H78.9766V7.76758V5.51172H81.2324H83.4883V7.76758ZM48.462 19.4701C48.0381 19.6803 46.3889 22.0652 38.8208 33.4131C33.7994 40.9422 29.58 47.3173 29.4442 47.5799C28.9451 48.5451 29.214 49.4061 30.4276 50.7288C33.3256 53.8874 35.4325 57.4201 36.7138 61.269C37.2747 62.9537 37.9199 65.7122 37.9199 66.4252C37.9199 66.6294 37.545 67.1567 36.9561 67.7811C35.3161 69.5195 34.2346 71.6773 33.8692 73.9395C33.5245 76.0738 33.8197 77.1419 34.9082 77.6973C35.4904 77.9943 35.7672 78 49.5 78C63.2328 78 63.5096 77.9943 64.0918 77.6973C65.1803 77.1419 65.4755 76.0738 65.1308 73.9395C64.7654 71.6773 63.6839 69.5195 62.0439 67.7811C61.455 67.1567 61.0801 66.6294 61.0801 66.4252C61.0801 65.7122 61.7253 62.9537 62.2862 61.269C63.5675 57.4201 65.6744 53.8874 68.5724 50.7288C69.7839 49.4083 70.0548 48.5448 69.5585 47.585C69.4242 47.3253 65.2051 40.9502 60.1828 33.4182C52.1702 21.4014 50.9835 19.6915 50.4962 19.4604C49.81 19.1352 49.1312 19.1385 48.462 19.4701ZM47.2435 35.5522L47.2431 42.1318L46.2645 42.6378C43.8604 43.881 42.4029 46.803 42.8478 49.4879C43.3409 52.4638 45.55 54.6809 48.5107 55.1716C52.897 55.8984 56.8985 51.8454 56.1432 47.4408C55.7922 45.3944 54.4745 43.5369 52.7355 42.6378L51.7569 42.1318L51.7565 35.5146L51.756 28.8975L58.2135 38.5838L64.6708 48.2703L63.7903 49.3368C60.6868 53.0953 58.2009 58.1739 57.1189 62.9656L56.7634 64.54L56.0267 64.4648C55.6215 64.4235 52.6845 64.3896 49.5 64.3896C46.3155 64.3896 43.3785 64.4235 42.9733 64.4648L42.2366 64.54L41.8811 62.9656C40.7992 58.174 38.3132 53.0953 35.2099 49.3369L34.3293 48.2706L40.7492 38.6259C44.2801 33.3212 47.1859 28.9791 47.2065 28.9769C47.2271 28.9746 47.2438 31.9335 47.2435 35.5522ZM23.4863 37.5469C24.1536 37.8874 24.6855 38.7538 24.6855 39.5C24.6855 40.2462 24.1536 41.1126 23.4863 41.4531C23.16 41.6196 22.6844 41.7559 22.4297 41.7559C21.2854 41.7559 20.1738 40.6443 20.1738 39.5C20.1738 38.7768 20.7061 37.8895 21.341 37.5542C22.0666 37.1712 22.7454 37.1689 23.4863 37.5469ZM77.627 37.5469C78.2942 37.8874 78.8262 38.7538 78.8262 39.5C78.8262 39.7548 78.6899 40.2303 78.5234 40.5566C78.183 41.2239 77.3166 41.7559 76.5703 41.7559C75.8241 41.7559 74.9577 41.2239 74.6172 40.5566C74.2338 39.8051 74.2337 39.195 74.6169 38.444C75.1727 37.3545 76.484 36.9638 77.627 37.5469ZM50.5566 46.5703C51.2239 46.9108 51.7559 47.7772 51.7559 48.5234C51.7559 49.2697 51.2239 50.1361 50.5566 50.4766C50.2303 50.643 49.7548 50.7793 49.5 50.7793C48.7538 50.7793 47.8874 50.2474 47.5469 49.5801C47.1635 48.8286 47.1634 48.2184 47.5466 47.4674C48.1024 46.378 49.4137 45.9873 50.5566 46.5703ZM55.5886 69.0575C56.8379 69.3829 57.9138 70.0434 58.8612 71.0668C59.5273 71.7862 60.3281 73.0663 60.3281 73.4114C60.3281 73.4537 55.4555 73.4883 49.5 73.4883C43.5445 73.4883 38.6719 73.4537 38.6719 73.4114C38.6719 73.0663 39.4727 71.7862 40.1388 71.0668C41.064 70.0675 42.1585 69.3844 43.3465 69.065C44.5693 68.7362 54.3321 68.7302 55.5886 69.0575Z"/>
</svg>
