<svg viewBox="0 0 80 80" preserveAspectRatio="XMidYMid meet" xmlns="http://www.w3.org/2000/svg">
<g clip-path="url(#clip0_16_21203)">
<path d="M14.1667 0H65.8333C73.6667 0 80 6.49573 80 14.5299V65.4701C80 73.5043 73.6667 80 65.8333 80H14.1667C6.33333 80 0 73.5043 0 65.4701V14.5299C0 6.49573 6.33333 0 14.1667 0Z" fill="#330000"/>
<path d="M38.6667 47.8633H26.2667L23.7334 55.8975C23.6667 56.2052 23.4 56.4103 23.1 56.3761H16.8334C16.4667 56.3761 16.3667 56.171 16.4667 55.7607L27.2 24.0684C27.3 23.7266 27.4 23.3505 27.5334 22.9402C27.6667 22.2223 27.7334 21.4701 27.7334 20.718C27.7 20.5471 27.8334 20.3761 28 20.3419H36.6334C36.9 20.3419 37.0334 20.4445 37.0667 20.6154L49.2334 55.8291C49.3334 56.2052 49.2334 56.3761 48.9 56.3761H41.9334C41.7 56.4103 41.4667 56.2394 41.4 56.0001L38.6667 47.8633ZM28.2 40.9231H36.6667C36.4667 40.2052 36.2 39.3505 35.9 38.4616C35.6 37.5385 35.3 36.5471 35 35.5214C34.6667 34.4616 34.3667 33.436 34.0334 32.3761C33.7 31.3163 33.4 30.3249 33.1334 29.3334C32.8667 28.3761 32.6334 27.4872 32.4 26.6667H32.3334C32.0334 28.1368 31.6667 29.6069 31.2 31.077C30.7 32.718 30.2 34.4274 29.6667 36.1368C29.2 37.8804 28.7 39.4872 28.2 40.9231ZM56.6667 26.3248C55.5667 26.359 54.5 25.9146 53.7 25.1283C52.9334 24.2736 52.5334 23.1454 52.5667 21.983C52.5334 20.8206 52.9667 19.7266 53.7667 18.9402C54.5667 18.1539 55.6334 17.7437 56.7334 17.7437C58.0334 17.7437 59.0334 18.1539 59.7667 18.9402C60.5 19.7607 60.9 20.8548 60.8667 21.983C60.9 23.1454 60.5 24.2736 59.7 25.1283C58.9334 25.9488 57.8 26.3932 56.6667 26.3248ZM52.9334 56.0001V29.6753C52.9334 29.3334 53.0667 29.1966 53.3667 29.1966H59.9667C60.2667 29.1966 60.4 29.3676 60.4 29.6753V56.0001C60.4 56.3761 60.2667 56.5471 59.9667 56.5471H53.4334C53.1 56.5471 52.9334 56.3419 52.9334 56.0001Z" fill="#FF9A00"/>
</g>
<defs>
<clipPath id="clip0_16_21203">
<rect width="80" height="80" fill="white"/>
</clipPath>
</defs>
</svg>
