<svg viewBox="0 0 100 100" preserveAspectRatio="XMidYMid meet" xmlns="http://www.w3.org/2000/svg">
<ellipse style="fill: var(--secondary-col)" cx="40.9722" cy="58.6111" rx="40.9722" ry="41.3889"/>
<path style="fill: var(--text-col)" fill-rule="evenodd" clip-rule="evenodd" d="M89.9195 66.4785C89.8434 66.3317 89.7742 66.1802 89.7122 66.0243L74.3787 27.4593L63.3339 46.6564C62.4409 48.2085 60.7862 49.1645 58.9956 49.163C57.205 49.1614 55.552 48.2024 54.6617 46.6488L43.6706 27.4673L28.2856 66.0298C28.2242 66.1837 28.1557 66.3334 28.0805 66.4785H38.2267C37.5973 65.2647 37.488 63.8346 37.9463 62.5252L42.1447 50.5298C42.7826 48.7073 44.413 47.4149 46.333 47.2099C48.2531 47.0048 50.1196 47.9237 51.128 49.5705L59 62.4256L66.872 49.5705C67.8804 47.9237 69.7469 47.0048 71.667 47.2099C73.587 47.4149 75.2174 48.7073 75.8553 50.5298L80.0537 62.5252C80.512 63.8346 80.4027 65.2647 79.7733 66.4785H89.9195ZM100 64.1769V71.4785H71.0048V64.1769H75.3344L71.136 52.1816L59 72L46.864 52.1816L42.6656 64.1769H46.9952V71.4785H18V64.1769H23.6416L42.8624 16L59 44.163L75.2032 16L94.3584 64.1769H100Z"/>
</svg>
