<svg viewBox="0 0 100 100" preserveAspectRatio="XMidYMid meet" xmlns="http://www.w3.org/2000/svg">
<ellipse style="fill: var(--secondary-col)" cx="40.9722" cy="58.6111" rx="40.9722" ry="41.3889"/>
<path style="fill: var(--text-col)" fill-rule="evenodd" clip-rule="evenodd" d="M54.4564 1.23979C53.484 1.49371 51.9602 2.29871 51.5081 2.79768C51.294 3.03368 51.238 3.03248 50.6479 2.77961C48.5792 1.89282 46.4053 2.00367 44.346 3.10131C43.2747 3.67226 41.9938 5.0163 41.4378 6.15249C41.0542 6.93671 40.9954 6.98821 40.482 6.99032C39.6524 6.99364 38.1394 7.39064 37.2629 7.83478C36.8319 8.05317 36.0651 8.64671 35.5588 9.15366C34.3607 10.3533 33.7335 11.6455 33.5103 13.374L33.3454 14.6524L32.4984 15.0646C31.4371 15.581 29.9358 17.0606 29.3998 18.1183C28.6466 19.6045 28.4451 21.2668 28.8019 23.0508C28.886 23.4711 28.8371 23.5428 28.2192 23.905C26.7232 24.7817 25.4127 26.7925 25.0909 28.7052C24.9522 29.5301 24.9669 30.0101 25.1722 31.3409C25.9834 36.5977 28.6729 53.6594 30.3671 64.2946C32.4391 77.3003 32.3746 77.0055 33.2907 77.6894C33.7066 77.9998 33.7161 78 56.2759 78C78.8357 78 78.8452 77.9998 79.261 77.6894C80.1808 77.0027 80.1 77.3824 82.3973 62.9391C84.3442 50.6978 86.6916 35.8121 87.38 31.3409C87.5848 30.0107 87.5996 29.5296 87.4609 28.7052C87.1463 26.835 85.9879 25.0099 84.4611 23.9784C84.0766 23.7187 83.7428 23.4925 83.7195 23.4756C83.6961 23.4588 83.7555 22.9702 83.8512 22.3899C84.3231 19.533 82.6572 16.3317 80.0344 15.0553C79.558 14.8235 79.1663 14.557 79.1637 14.4632C79.1351 13.415 78.7962 11.9277 78.3933 11.0821C77.8147 9.868 76.4181 8.40695 75.2888 7.83478C74.4123 7.39064 72.8993 6.99364 72.0697 6.99032C71.5563 6.98821 71.4976 6.93671 71.114 6.15249C70.5579 5.0163 69.277 3.67226 68.2057 3.10131C66.1564 2.00894 63.9821 1.89343 61.9314 2.76771L61.3213 3.02781L60.7083 2.52704C59.0159 1.14415 56.6717 0.661449 54.4564 1.23979ZM57.0185 5.62957C57.6883 5.82175 58.322 6.43412 58.7802 7.33235C59.2266 8.20709 59.8864 8.6434 60.764 8.64415C61.5333 8.64491 62.0632 8.39324 62.6767 7.73553C63.2087 7.16548 64.1535 6.69483 64.7753 6.69016C65.5312 6.68444 66.4835 7.25343 66.8959 7.95708C67.186 8.45198 67.2703 8.80666 67.2703 9.53154C67.2703 10.59 67.4988 11.1411 68.173 11.7083C68.8765 12.3003 69.5573 12.3669 70.5643 11.9419C71.6967 11.464 72.6374 11.481 73.4114 11.9931C74.4768 12.6982 74.8022 14.1195 74.2016 15.4434C73.8052 16.3171 73.8166 17.0668 74.2359 17.6828C74.829 18.5542 75.2965 18.7964 76.4803 18.8452C78.1832 18.9155 78.9394 19.4348 79.3026 20.7832C79.5134 21.5664 79.1598 22.9517 78.7483 22.9541C78.3936 22.956 77.0424 23.5996 76.2542 24.1418L75.602 24.5906L74.8991 24.0909C73.6245 23.1848 72.7728 22.9021 71.1108 22.8337C69.3247 22.7604 68.1907 23.069 66.7734 24.0139L65.9002 24.5962L65.235 24.0883C64.2071 23.3036 63.0371 22.9176 61.4437 22.8369C59.7286 22.7502 58.4095 23.1051 57.1374 23.9964L56.2759 24.5999L55.4144 23.9964C54.1207 23.0902 52.817 22.7459 51.0267 22.8377C49.4251 22.9199 48.2591 23.3253 47.2095 24.1653L46.6526 24.6109L45.82 24.0278C44.5123 23.1116 43.1886 22.7529 41.407 22.8319C39.7824 22.9039 38.9113 23.1961 37.6527 24.0909L36.9498 24.5906L36.2975 24.1418C35.5094 23.5996 34.1581 22.956 33.8034 22.9541C33.392 22.9517 33.0383 21.5664 33.2492 20.7832C33.6123 19.4348 34.3685 18.9155 36.0714 18.8452C36.8602 18.8126 37.2465 18.7212 37.5489 18.4955C38.6051 17.7069 38.8887 16.6725 38.3703 15.5005C37.7528 14.1045 38.0592 12.7086 39.1404 11.9931C39.9144 11.481 40.8551 11.464 41.9875 11.9419C42.9945 12.3669 43.6752 12.3003 44.3787 11.7083C45.053 11.1411 45.2814 10.59 45.2814 9.53154C45.2814 8.80666 45.3658 8.45198 45.6559 7.95708C46.0682 7.25343 47.0205 6.68444 47.7764 6.69016C48.3983 6.69483 49.3431 7.16548 49.875 7.73553C50.4886 8.39324 51.0184 8.64491 51.7877 8.64415C52.6778 8.6434 53.3251 8.20829 53.7844 7.30208C54.5106 5.86889 55.703 5.2523 57.0185 5.62957ZM59.2284 11.9639C58.2168 12.2666 57.4905 13.495 57.6911 14.564C58.0618 16.5401 60.7855 16.9797 61.8491 15.2352C62.4931 14.179 62.0187 12.6651 60.8694 12.1088C60.2012 11.7852 59.9111 11.7596 59.2284 11.9639ZM49.0534 13.1693C46.5457 13.6892 44.5707 15.9556 44.4147 18.4929C44.3569 19.4327 44.3921 19.6268 44.7022 20.0772C45.2483 20.8704 45.7477 21.1704 46.5223 21.1704C47.8112 21.1704 48.6668 20.4058 48.8467 19.0932C48.9673 18.2134 49.3992 17.7371 50.197 17.6046C51.7228 17.351 52.4354 16.6275 52.4354 15.3319C52.4354 13.6612 51.0267 12.7604 49.0534 13.1693ZM65.2648 16.8434C64.1632 17.2397 63.5528 18.1822 63.7201 19.2283C63.9123 20.4302 64.7925 21.1704 66.0294 21.1704C66.8045 21.1704 67.3045 20.8698 67.8485 20.0772C68.1336 19.6618 68.1892 19.4182 68.1396 18.8003C68.0169 17.2688 66.6567 16.3428 65.2648 16.8434ZM33.2224 27.5407C33.6941 27.7847 34.3724 28.5282 34.4974 28.9385C34.5417 29.0838 35.5972 38.9284 36.843 50.8152C38.0887 62.7019 39.1475 72.6817 39.1958 72.9923L39.2836 73.557H37.8396C37.0454 73.557 36.3955 73.4945 36.3955 73.4182C36.3955 73.3417 35.2118 65.8352 33.7649 56.7369C29.5343 30.1349 29.4614 29.645 29.6478 29.0872C30.1275 27.6519 31.9297 26.8723 33.2224 27.5407ZM42.8416 27.5327C43.5172 27.8858 44.0498 28.562 44.216 29.2781C44.3501 29.8559 44.842 38.5195 44.8328 40.1414C44.8298 40.6684 44.785 40.7131 43.5871 41.3854C42.9038 41.769 41.9818 42.3576 41.5382 42.6933C41.0948 43.029 40.7054 43.277 40.6727 43.2444C40.5819 43.1535 39.2591 30.5029 39.258 29.7146C39.257 28.9045 39.6749 28.1852 40.4502 27.6627C41.0456 27.2615 42.202 27.1985 42.8416 27.5327ZM52.9218 27.743C53.1785 27.9258 53.5298 28.3674 53.7026 28.7243C54 29.3387 54.0167 29.6179 54.0167 33.9729V38.5725L52.8004 38.674C52.1314 38.7297 51.1047 38.8763 50.5189 38.9995C49.933 39.1228 49.4337 39.2038 49.4096 39.1796C49.3107 39.0808 48.8733 30.0581 48.9387 29.4673C49.0226 28.7093 49.5765 27.9228 50.2786 27.5651C50.9725 27.2113 52.3006 27.3008 52.9218 27.743ZM62.6409 27.8097C62.9272 28.0282 63.2829 28.4629 63.4316 28.776C63.6905 29.3217 63.6909 29.5458 63.4435 34.2407C63.3015 36.9334 63.1658 39.1561 63.1417 39.18C63.1177 39.204 62.6187 39.1228 62.0329 38.9995C61.447 38.8763 60.4176 38.7296 59.7454 38.6735L58.5231 38.5716L58.5668 33.8006L58.6103 29.0296L59.0093 28.427C59.5548 27.6031 60.2033 27.2972 61.2688 27.3613C61.9043 27.3996 62.2522 27.5133 62.6409 27.8097ZM72.1015 27.6627C72.8769 28.1852 73.2948 28.9045 73.2937 29.7146C73.2927 30.5029 71.9699 43.1535 71.8791 43.2444C71.8464 43.277 71.4569 43.029 71.0135 42.6933C70.57 42.3576 69.6481 41.769 68.9646 41.3854C67.4902 40.5578 67.6199 41.4105 67.948 34.7C68.1961 29.6263 68.3077 28.8033 68.8234 28.2415C69.7282 27.2559 71.1305 27.0083 72.1015 27.6627ZM81.548 27.5327C82.1174 27.8302 82.7126 28.5124 82.9044 29.0872C83.0904 29.645 83.0161 30.1434 78.7869 56.7369C77.34 65.8352 76.1562 73.3417 76.1562 73.4182C76.1562 73.4945 75.5063 73.557 74.7122 73.557H73.2681L73.3559 72.9923C73.4043 72.6817 74.4622 62.7019 75.7068 50.8152C76.9514 38.9284 78.0411 29.0244 78.1283 28.8063C78.2951 28.3886 78.8878 27.7751 79.3943 27.4955C79.8214 27.2598 81.0668 27.2814 81.548 27.5327ZM60.5727 43.3481C64.0637 43.9344 67.2176 45.2836 69.0387 46.9697C70.3609 48.1938 70.8849 49.1586 70.8849 50.3689C70.8849 53.2607 67.2235 56.0238 61.7731 57.2451C60.4165 57.549 59.557 57.6306 57.0289 57.696C54.3067 57.7663 53.7113 57.7368 51.9963 57.4457C48.9153 56.9228 46.768 56.1372 44.679 54.7689C41.9994 53.0136 41.0326 50.7917 42.0553 48.7392C43.1035 46.6358 46.4856 44.5899 50.4774 43.6444C53.3111 42.9733 57.5926 42.8475 60.5727 43.3481ZM45.0691 60.1585C45.7657 60.4411 45.886 60.5508 45.948 60.9595C45.9875 61.2199 46.1258 63.6696 46.2551 66.4031C46.3847 69.1367 46.5315 71.8645 46.5815 72.4651L46.6723 73.557H45.2238C44.1659 73.557 43.7752 73.5063 43.7746 73.3688C43.774 73.2653 43.4356 69.9952 43.0223 66.1019C42.609 62.2087 42.2706 58.943 42.27 58.8448C42.2696 58.7467 42.7176 58.9283 43.2657 59.2486C43.8138 59.5688 44.6252 59.9782 45.0691 60.1585ZM69.5341 66.0576C69.1174 69.9938 68.7764 73.2915 68.7764 73.3857C68.7764 73.5019 68.3095 73.557 67.3262 73.557H65.876L65.9678 72.3898C66.0183 71.7479 66.1672 68.9522 66.2987 66.1772C66.4302 63.4023 66.565 60.9925 66.5983 60.8222C66.6409 60.6049 66.9861 60.368 67.7553 60.0279C68.3583 59.7613 69.1567 59.3507 69.5294 59.1153C69.9022 58.8799 70.2263 58.7354 70.2495 58.7941C70.2728 58.8528 69.9508 62.1213 69.5341 66.0576ZM52.4959 62.1237L54.0167 62.3079V67.9326V73.557H52.586C51.3245 73.557 51.155 73.5259 51.1534 73.2935C51.1525 73.1486 51.0177 70.5901 50.854 67.608C50.6903 64.626 50.5555 62.0941 50.5546 61.9817C50.5535 61.868 50.6464 61.8133 50.7639 61.8584C50.8799 61.903 51.6593 62.0222 52.4959 62.1237ZM61.9972 61.9225C61.9963 61.9847 61.8615 64.4753 61.6978 67.4574C61.5341 70.4394 61.3993 73.0317 61.3984 73.2182C61.3966 73.5458 61.3487 73.557 59.9658 73.557H58.535V67.9213V62.2854L59.5516 62.1801C60.1107 62.1222 60.8393 62.0225 61.1706 61.9587C62.0124 61.7965 61.9991 61.7971 61.9972 61.9225Z"/>
</svg>
