<svg viewBox="0 0 100 100" preserveAspectRatio="XMidYMid meet" xmlns="http://www.w3.org/2000/svg">
<ellipse style="fill: var(--secondary-col)" cx="40.9722" cy="58.6111" rx="40.9722" ry="41.3889"/>
<path style="fill: var(--text-col)" fill-rule="evenodd" clip-rule="evenodd" d="M53.4679 2.26259C52.5241 2.76112 52.3613 3.30472 52.3613 5.95696V8.24533L46.3016 20.3693C42.9687 27.0375 40.2126 32.4934 40.177 32.4934C40.1413 32.4934 39.8758 32.3329 39.587 32.1368C38.6968 31.5325 37.6289 31.6969 36.8202 32.5625L36.4638 32.9443L36.4256 44.202L36.3875 55.4598L32.8611 57.2232L29.3348 58.9867L25.0575 56.8708C20.3206 54.5275 19.9554 54.4192 18.9833 55.069C17.9667 55.7483 18.0002 55.415 18.0001 64.8426C17.9998 73.0373 18.0087 73.3171 18.2868 73.8626C18.4716 74.225 18.7744 74.528 19.1367 74.7129C19.6961 74.9983 19.9032 75 54.5 75C89.0968 75 89.3039 74.9983 89.8633 74.7129C90.2256 74.528 90.5284 74.225 90.7132 73.8626C90.9913 73.3171 91.0002 73.0373 90.9999 64.8426C90.9998 55.415 91.0333 55.7483 90.0167 55.069C89.0551 54.4264 88.7296 54.5248 84.0128 56.8853L79.7363 59.0254L76.1718 57.2414L72.6075 55.4572L72.6069 44.3676C72.6065 33.5533 72.5994 33.2663 72.3231 32.813C71.6922 31.7776 70.3884 31.4746 69.413 32.1368C69.1242 32.3329 68.8587 32.4934 68.823 32.4934C68.7874 32.4934 66.0313 27.0375 62.6984 20.3693L56.6387 8.24533V5.95696C56.6387 3.94517 56.604 3.60084 56.3517 3.10588C55.8256 2.07417 54.5376 1.6976 53.4679 2.26259ZM60.1076 24.7418L65.6431 35.8186L64.1037 37.3635L62.5643 38.9084L59.0668 35.4283C54.1826 30.5683 54.8174 30.5683 49.9332 35.4283L46.4357 38.9084L44.8963 37.3635L43.3569 35.8186L48.8924 24.7418C51.9369 18.6495 54.4604 13.6649 54.5 13.6649C54.5396 13.6649 57.0631 18.6495 60.1076 24.7418ZM57.638 40.1403C59.3233 41.8356 60.9875 43.4082 61.3361 43.635C62.0056 44.0704 62.6129 44.1519 63.295 43.8976C63.5157 43.8154 64.739 42.7088 66.0132 41.4387L68.3301 39.1294V54.925V70.7208H54.5H40.6699V54.925V39.1294L42.9868 41.4387C44.2611 42.7088 45.4843 43.8154 45.705 43.8976C46.3871 44.1519 46.9944 44.0704 47.6639 43.635C48.0125 43.4082 49.6767 41.8356 51.362 40.1403C53.0473 38.4449 54.4594 37.0578 54.5 37.0578C54.5406 37.0578 55.9527 38.4449 57.638 40.1403ZM53.2881 47.8913C51.1427 48.2364 49.7141 48.9713 48.1507 50.5337C46.364 52.3197 45.5218 54.3314 45.5218 56.8134C45.5218 59.2865 46.3612 61.2942 48.1521 63.1049C49.0596 64.0224 49.549 64.3859 50.5218 64.8647C53.1147 66.1414 55.8853 66.1414 58.4782 64.8647C60.803 63.7203 62.6738 61.3799 63.2605 58.8817C63.7303 56.8816 63.4625 54.6728 62.5172 52.7482C61.8176 51.324 60.1202 49.5946 58.7061 48.8653C57.0651 48.0191 54.9062 47.631 53.2881 47.8913ZM56.597 52.6187C57.5642 53.085 58.2982 53.8333 58.8123 54.877C59.2743 55.8148 59.2743 57.8121 58.8123 58.7499C58.2906 59.8092 57.5654 60.5403 56.5326 61.0491C55.7122 61.4532 55.4356 61.5168 54.5 61.5168C53.5644 61.5168 53.2878 61.4532 52.4674 61.0491C51.4346 60.5403 50.7094 59.8092 50.1877 58.7499C49.9262 58.219 49.8662 57.8574 49.8662 56.8134C49.8662 55.7695 49.9262 55.4079 50.1877 54.877C51.4194 52.3765 54.1205 51.4248 56.597 52.6187ZM29.3143 63.5027C29.7643 63.4915 30.661 63.109 33.0762 61.898C34.8204 61.0236 36.2801 60.3081 36.3199 60.3081C36.3598 60.3081 36.3925 62.651 36.3925 65.5145V70.7208H29.3348H22.2772V65.5176V60.3144L25.5003 61.9159C28.1326 63.224 28.8317 63.5148 29.3143 63.5027ZM75.9238 61.898C78.339 63.109 79.2357 63.4915 79.6857 63.5027C80.1683 63.5148 80.8674 63.224 83.4997 61.9159L86.7228 60.3144V65.5176V70.7208H79.6652H72.6075V65.5145C72.6075 62.651 72.6402 60.3081 72.6801 60.3081C72.7199 60.3081 74.1796 61.0236 75.9238 61.898Z"/>
</svg>
