<svg viewBox="0 0 100 100" preserveAspectRatio="XMidYMid meet" xmlns="http://www.w3.org/2000/svg">
<ellipse style="fill: var(--secondary-col)" cx="41.4722" cy="58.6111" rx="40.9722" ry="41.3889"/>
<path style="fill: var(--text-col)" fill-rule="evenodd" clip-rule="evenodd" d="M66.0014 9.078C65.7437 9.21168 65.3953 9.52683 65.2273 9.77843L64.9217 10.2359V23.9539V37.6719L64.5972 37.9683C64.4187 38.1313 61.7487 41.8692 58.6638 46.2747C55.5788 50.6803 53.0049 54.3029 52.9439 54.325C52.8829 54.3471 51.9084 53.0749 50.7783 51.498C48.4627 48.2666 48.1041 47.8416 47.3774 47.4671C46.0703 46.7936 44.6469 47.0247 43.5775 48.0842C42.6551 48.9982 25.661 72.6185 25.4061 73.341C24.9862 74.5312 25.2976 75.855 26.2129 76.7701C27.312 77.8693 24.2202 77.7764 59.6615 77.7755C81.0007 77.7751 91.4039 77.7296 91.7427 77.6355C93.4363 77.1653 94.5283 75.0848 93.9588 73.4133C93.7564 72.8191 70.1853 39.0274 69.343 38.1236L68.9605 37.7135V34.0513V30.3893H77.5136C84.4329 30.3893 86.1507 30.3542 86.5063 30.2057C87.4236 29.8225 88.0031 28.6308 87.6824 27.7872C87.6052 27.5844 86.7539 26.1539 85.7905 24.6081C84.827 23.0625 84.0387 21.7264 84.0387 21.6389C84.0387 21.5514 84.8334 20.2049 85.8047 18.6465C86.7761 17.0883 87.6269 15.6105 87.6953 15.3627C87.9335 14.5 87.4281 13.5141 86.5045 13.0395C86.2961 12.9325 83.7004 12.8885 77.598 12.8885H68.9857L68.9395 11.5517C68.8899 10.1206 68.7525 9.78167 67.9915 9.21356C67.4935 8.84173 66.5775 8.7794 66.0014 9.078ZM82.0193 17.0121C82.0193 17.0588 81.5422 17.8614 80.959 18.7958C79.5991 20.9744 79.596 20.9809 79.596 21.6389C79.596 22.2969 79.5991 22.3034 80.959 24.482C81.5422 25.4164 82.0193 26.219 82.0193 26.2657C82.0193 26.3124 79.0811 26.3507 75.4899 26.3507H68.9605V21.6389V16.9271H75.4899C79.0811 16.9271 82.0193 16.9654 82.0193 17.0121ZM70.5087 46.7035C72.4339 49.4537 74.009 51.7696 74.009 51.85C74.009 51.9305 73.5114 52.4717 72.9033 53.0527L71.7978 54.1089L69.8325 52.2831C67.7511 50.3492 67.4622 50.1857 66.4598 50.3737C66.1137 50.4386 65.6394 50.7734 64.7696 51.5666C64.1046 52.1731 63.2142 52.9831 62.7908 53.3665L62.021 54.0638L60.8444 52.9626L59.6679 51.8616L63.245 46.7796C65.2125 43.9846 66.8641 41.6989 66.9154 41.7004C66.9665 41.702 68.5835 43.9535 70.5087 46.7035ZM48.2737 54.9256C49.4333 56.5369 50.382 57.9072 50.382 57.971C50.382 58.0347 48.07 61.3811 45.2443 65.4074C42.4187 69.4338 40.0165 72.9552 39.9061 73.2328L39.7057 73.7376H34.7996H29.8934L30.4008 73.0309C31.5858 71.38 43.5327 54.8145 44.633 53.2962C45.6107 51.9476 45.8683 51.6688 46.0015 51.8154C46.0917 51.9149 47.1143 53.3144 48.2737 54.9256ZM68.7586 56.7945C70.8655 58.7576 70.9501 58.8164 71.6816 58.8274C72.4992 58.8398 72.8524 58.6125 74.7469 56.854C75.671 55.9962 76.4585 55.2973 76.497 55.3008C76.5354 55.3043 79.4602 59.4388 82.9964 64.4887L89.4259 73.6703L78.1942 73.7048C72.0167 73.7236 61.8818 73.7236 55.6721 73.7048L44.3819 73.6703L50.7813 64.5574C54.301 59.5453 57.224 55.4027 57.277 55.3516C57.3301 55.3005 58.1539 55.9867 59.1078 56.8764C60.0617 57.7661 60.9779 58.5668 61.1439 58.6555C61.5654 58.8812 62.5292 58.8569 62.9883 58.6091C63.2001 58.4948 64.1308 57.6747 65.0563 56.7868C65.9819 55.899 66.7997 55.1706 66.8738 55.1683C66.9478 55.1659 67.796 55.8977 68.7586 56.7945Z"/>
</svg>
