<svg viewBox="0 0 80 80" preserveAspectRatio="XMidYMid meet" xmlns="http://www.w3.org/2000/svg">
<path fill-rule="evenodd" clip-rule="evenodd" d="M50.1262 12.4744L50.0311 70.2197L7.86835 64.381C8.83187 63.4118 10.0571 63.168 11.4488 62.6151C12.6502 62.1394 13.59 61.7767 14.7735 61.307C17.0753 60.3973 19.4603 59.2557 21.6133 58.6611L21.6193 19.2763L50.1262 12.4744ZM7 63.8696C7 63.8696 7.36875 64.2977 7.73156 64.5356C8.136 64.7972 8.249 64.8091 8.70102 64.9993C9.37905 65.2788 10.0868 65.5047 10.8124 65.7604C12.2696 66.2598 13.5008 66.7533 14.9698 67.3063L39.9498 76.5341C51.0362 80.4227 47.8423 81.0767 57.0731 78.306L70.3184 74.4293C72.7034 73.7218 73.7443 73.9002 74 72.7764V7.21829C73.5182 6.21345 73.7621 6.54047 72.2692 6.10643L65.6198 4.19189C62.7055 3.36543 59.7911 2.49734 56.7935 1.60548C53.5877 0.654154 50.9827 -0.743103 48.0089 0.475781L7 15.8159V63.8696Z" fill="#EB3B00"/>
</svg>
