<svg viewBox="0 0 101 100" preserveAspectRatio="XMidYMid meet" xmlns="http://www.w3.org/2000/svg">
<ellipse style="fill: var(--secondary-col)" cx="40.9722" cy="58.6111" rx="40.9722" ry="41.3889"/>
<path style="fill: var(--text-col)" fill-rule="evenodd" clip-rule="evenodd" d="M77.8134 0.0413542C74.567 0.393758 71.1165 1.65861 68.4149 3.48653L67.1594 4.3361L66.0484 3.2807C64.8817 2.17237 64.3255 1.92793 63.3945 2.11416C61.9839 2.3963 61.1981 4.00375 61.8524 5.26891C61.9894 5.534 62.502 6.16779 62.9913 6.67747L63.8811 7.6041L62.9648 8.99954C61.3542 11.4523 60.3346 13.9793 59.8485 16.7238L59.5887 18.1896L55.933 21.8479C52.9075 24.8755 52.2497 25.6093 52.1179 26.1045C51.8649 27.0542 52.1274 27.7037 53.2412 28.8844C53.7763 29.4516 54.2142 29.9583 54.2142 30.0102C54.2142 30.0621 47.6648 37.3448 39.6598 46.1941C28.6906 58.3203 25.0642 62.4214 24.938 62.8427C24.6034 63.9594 24.8195 64.3698 26.8121 66.4021L28.6406 68.2669L26.0614 70.8627C23.4153 73.5259 23 74.0735 23 74.9006C23 75.5228 23.5205 76.4359 24.0554 76.7518C24.613 77.0813 25.9771 77.0831 26.4723 76.7552C26.6774 76.6194 27.9793 75.3842 29.3656 74.0104L31.886 71.5123L33.7508 73.3408C35.7819 75.3322 36.1938 75.5493 37.3074 75.2158C37.7254 75.0905 41.8712 71.4199 53.9933 60.4426L70.1229 45.8358L71.2062 46.8576C72.4441 48.025 73.0746 48.2873 74.0387 48.036C74.5489 47.9032 75.2356 47.289 78.305 44.221L81.9632 40.5642L83.3667 40.3156C86.1708 39.8187 89.0816 38.6243 91.4085 37.0156L92.5219 36.2459L93.462 37.1486C93.9791 37.6452 94.6189 38.1634 94.884 38.3005C96.6409 39.2092 98.6561 37.3306 97.9413 35.4505C97.8567 35.2279 97.3357 34.578 96.7835 34.0061L95.7797 32.9662L96.141 32.4782C98.0027 29.964 99.2122 27.1947 99.8529 23.9792C100.211 22.1833 100.212 18.327 99.8553 16.5505C98.934 11.9617 96.7392 8.12117 93.2617 5.01301C90.6812 2.70663 87.2253 1.01397 83.6824 0.321076C82.4859 0.0870446 78.9462 -0.0816933 77.8134 0.0413542ZM83.619 4.93324C86.5249 5.67892 88.8933 7.0258 91.0175 9.14098C95.7218 13.8249 96.9654 20.7086 94.2264 26.902C93.8305 27.797 92.6925 29.653 92.5396 29.653C92.4846 29.653 87.4862 24.6962 81.432 18.638C70.901 8.09991 70.4376 7.61299 70.7261 7.39253C72.2238 6.24786 75.028 5.07876 77.1936 4.69605C78.915 4.39189 81.9448 4.50378 83.619 4.93324ZM78.2662 21.9675L89.2737 32.9804L88.8967 33.2823C88.6894 33.4483 87.7733 33.9548 86.861 34.4076C84.9873 35.3379 82.9965 35.9032 81.0555 36.0561L79.7737 36.157L71.8738 28.2467L63.974 20.3363L64.0835 19.0808C64.2227 17.485 64.7567 15.3749 65.3815 13.9502C65.8838 12.8054 66.9818 10.9546 67.1586 10.9546C67.2137 10.9546 72.212 15.9104 78.2662 21.9675ZM76.5317 39.5322C76.5317 39.6169 75.8525 40.3631 75.0224 41.19L73.5131 42.6936L65.4862 34.6665L57.4592 26.6397L59.0395 25.0539L60.6198 23.4683L68.5757 31.4231C72.9515 35.7984 76.5317 39.4474 76.5317 39.5322ZM62.2794 37.9443C66.3631 42.0296 66.9219 42.6437 66.7269 42.8314C66.6043 42.9493 61.3156 47.7366 54.9744 53.4696L43.4449 63.8932L39.8655 60.316C36.3274 56.7802 36.289 56.7352 36.5419 56.4054C36.9995 55.8087 57.4439 33.272 57.5276 33.272C57.5724 33.272 59.7107 35.3745 62.2794 37.9443ZM56.9836 40.5066C56.2961 40.6652 55.8401 41.0353 53.9627 42.9585C52.6896 44.2627 52.2396 44.8287 52.1185 45.2782C51.6675 46.9533 53.2161 48.4934 54.8875 48.032C55.3291 47.91 55.9229 47.4321 57.2655 46.1176C59.3595 44.0679 59.668 43.6283 59.668 42.6939C59.668 41.2298 58.384 40.1838 56.9836 40.5066ZM36.7234 63.5151L40.1151 66.9172L39.411 67.5489C39.0239 67.8964 38.2562 68.583 37.7051 69.0746L36.7031 69.9685L33.4702 66.7382C31.6922 64.9617 30.2545 63.4611 30.2755 63.4038C30.3423 63.2203 33.1392 60.1132 33.2374 60.1132C33.2894 60.1132 34.8581 61.6441 36.7234 63.5151Z"/>
</svg>
