<svg viewBox="0 0 100 100" preserveAspectRatio="XMidYMid meet" xmlns="http://www.w3.org/2000/svg">
<ellipse style="fill: var(--secondary-col)" cx="40.9722" cy="58.6111" rx="40.9722" ry="41.3889"/>
<path style="fill: var(--text-col)" fill-rule="evenodd" clip-rule="evenodd" d="M53.2703 5.19271C51.1945 5.69759 47.3254 7.68757 44.3186 9.79648C39.7969 12.9683 37.4051 16.062 35.8796 20.7127C33.3017 28.5716 34.3299 38.1428 39.0207 49.9542C44.8276 64.5753 52.4597 73.7029 61.6472 77.0139C63.8504 77.8079 65.0749 78.0038 67.808 77.9999C70.6029 77.9959 72.5583 77.7414 75.3939 77.0127C82.0392 75.3051 84.6828 73.5143 85.3621 70.2607C85.9014 67.6786 84.9125 64.917 81.44 59.3065C79.4942 56.1627 78.5239 54.8566 76.8422 53.1188C75.5103 51.7422 74.4317 50.9192 73.17 50.3164C71.853 49.6873 70.813 49.4754 69.4598 49.5608C68.1695 49.642 67.3491 49.911 64.5137 51.1827C62.6438 52.0212 62.2539 52.1467 61.5059 52.1507C60.4683 52.1563 60.0349 51.9471 58.8857 50.8867C56.2554 48.4588 53.2703 42.009 53.2703 38.7528C53.2703 37.3841 53.5761 36.5399 54.3193 35.857C54.9862 35.2443 55.2963 35.0865 58.3304 33.8156C59.4986 33.3265 60.8283 32.6772 61.2854 32.373C62.7739 31.382 63.9275 29.5041 64.3619 27.3647C64.6507 25.9426 64.6515 23.0224 64.3638 20.966C64.1358 19.3357 62.8509 13.9272 62.2106 11.9024C61.3632 9.22192 59.7382 6.78974 58.1911 5.88593C56.7309 5.03279 54.956 4.78278 53.2703 5.19271ZM55.8454 10.3512C56.7501 11.1101 57.5944 13.3339 58.6298 17.6851C59.4094 20.961 59.6096 22.3067 59.6178 24.3245C59.6242 25.908 59.5794 26.2975 59.312 26.9755C59.1397 27.4125 58.8216 27.939 58.6052 28.1454C58.3887 28.3519 57.1805 28.9477 55.9201 29.4697C52.7115 30.7983 52.0655 31.1686 50.8054 32.4005C49.9566 33.2305 49.5855 33.7258 49.201 34.5423C47.5714 38.0019 48.0881 42.0011 50.9061 47.741C52.416 50.8166 53.5687 52.5582 55.1208 54.109C57.3211 56.3074 58.997 57.1177 61.3603 57.1257C63.005 57.1313 63.7085 56.9304 66.8054 55.5704C69.5395 54.3696 70.0171 54.2852 71.1047 54.8099C71.9023 55.1949 73.4625 56.6177 74.4556 57.8658C75.9893 59.7931 78.7373 64.2195 79.7887 66.4563C80.4892 67.9466 80.6665 69.1445 80.2748 69.7406C79.7963 70.4687 76.0039 71.871 72.5345 72.6026C70.2022 73.0945 66.8594 73.2231 65.1868 72.8853C61.1384 72.0674 56.6154 69.0192 52.8772 64.5894C51.6305 63.1121 49.2161 59.5889 48.0826 57.5931C44.7384 51.7047 41.4857 43.2863 40.3098 37.476C39.6386 34.1597 39.4857 32.4422 39.564 29.1078C39.6554 25.2222 40.0332 23.3099 41.2709 20.4694C42.7896 16.9838 46.0458 14.0459 51.4594 11.2767C54.1987 9.87544 55.0613 9.69339 55.8454 10.3512Z"/>
</svg>
