<svg viewBox="0 0 80 80" preserveAspectRatio="XMidYMid meet" xmlns="http://www.w3.org/2000/svg">
<g clip-path="url(#clip0_16_21193)">
<path d="M14.1667 0H65.8333C73.6667 0 80 6.49573 80 14.5299V65.4701C80 73.5043 73.6667 80 65.8333 80H14.1667C6.33333 80 0 73.5043 0 65.4701V14.5299C0 6.49573 6.33333 0 14.1667 0Z" fill="#001E36"/>
<path d="M18 56.1025V20.923C18 20.6837 18.1 20.5469 18.3333 20.5469C18.9 20.5469 19.4333 20.5469 20.2 20.5127C21 20.4785 21.8333 20.4785 22.7333 20.4444C23.6333 20.4102 24.6 20.4102 25.6333 20.376C26.6667 20.3418 27.6667 20.3418 28.6667 20.3418C31.4 20.3418 33.6667 20.6837 35.5333 21.4016C37.2 21.9828 38.7333 22.9401 40 24.205C41.0667 25.2991 41.9 26.6324 42.4333 28.1025C42.9333 29.5384 43.2 31.0085 43.2 32.5469C43.2 35.4871 42.5333 37.9144 41.2 39.829C39.8667 41.7435 38 43.1794 35.8333 43.9999C33.5667 44.8546 31.0667 45.1623 28.3333 45.1623C27.5333 45.1623 27 45.1623 26.6667 45.1281C26.3333 45.0939 25.8667 45.0939 25.2333 45.0939V56.0683C25.2667 56.3076 25.1 56.5127 24.8667 56.5469C24.8333 56.5469 24.8 56.5469 24.7333 56.5469H18.4C18.1333 56.5469 18 56.4102 18 56.1025ZM25.2667 27.1452V38.6324C25.7333 38.6666 26.1667 38.7008 26.5667 38.7008H28.3333C29.6333 38.7008 30.9333 38.4956 32.1667 38.0854C33.2333 37.7777 34.1667 37.1281 34.9 36.2734C35.6 35.4187 35.9333 34.2563 35.9333 32.7521C35.9667 31.6922 35.7 30.6324 35.1667 29.7093C34.6 28.8204 33.8 28.1367 32.8333 27.7606C31.6 27.2478 30.2667 27.0427 28.9 27.0768C28.0333 27.0768 27.2667 27.0768 26.6333 27.111C25.9667 27.0768 25.5 27.111 25.2667 27.1452Z" fill="#31A8FF"/>
<path d="M64 36.5468C63 35.9998 61.9333 35.6237 60.8 35.3844C59.5666 35.1109 58.3333 34.94 57.0666 34.94C56.4 34.9058 55.7 35.0083 55.0666 35.1793C54.6333 35.2818 54.2666 35.5212 54.0333 35.863C53.8666 36.1366 53.7666 36.4784 53.7666 36.7861C53.7666 37.0938 53.9 37.4015 54.1 37.675C54.4 38.0511 54.8 38.3588 55.2333 38.5981C56 39.0083 56.8 39.3844 57.6 39.7263C59.4 40.3417 61.1333 41.1964 62.7333 42.222C63.8333 42.94 64.7333 43.8972 65.3666 45.0596C65.9 46.1536 66.1666 47.3502 66.1333 48.581C66.1666 50.1878 65.7 51.7947 64.8333 53.128C63.9 54.4955 62.6 55.5554 61.1 56.1707C59.4666 56.8887 57.4666 57.2648 55.0666 57.2648C53.5333 57.2648 52.0333 57.128 50.5333 56.8203C49.3666 56.6152 48.2 56.2391 47.1333 55.7263C46.9 55.5895 46.7333 55.3502 46.7666 55.0767V49.128C46.7666 49.0254 46.8 48.8887 46.9 48.8203C47 48.7519 47.1 48.7861 47.2 48.8545C48.5 49.6408 49.8666 50.1878 51.3333 50.5297C52.6 50.8716 53.9333 51.0425 55.2666 51.0425C56.5333 51.0425 57.4333 50.8716 58.0333 50.5639C58.5666 50.3246 58.9333 49.7434 58.9333 49.128C58.9333 48.6494 58.6666 48.2049 58.1333 47.7605C57.6 47.316 56.5 46.8032 54.8666 46.1536C53.1666 45.5383 51.6 44.7177 50.1333 43.6921C49.1 42.94 48.2333 41.9485 47.6 40.7861C47.0666 39.6921 46.8 38.4955 46.8333 37.2989C46.8333 35.8289 47.2333 34.4271 47.9666 33.1622C48.8 31.7947 50.0333 30.7007 51.4666 30.0169C53.0333 29.1964 55 28.8203 57.3666 28.8203C58.7333 28.8203 60.1333 28.9229 61.5 29.128C62.5 29.2648 63.4666 29.5383 64.3666 29.9143C64.5 29.9485 64.6333 30.0853 64.7 30.222C64.7333 30.3588 64.7666 30.4955 64.7666 30.6323V36.2049C64.7666 36.3417 64.7 36.4784 64.6 36.5468C64.3 36.6152 64.1333 36.6152 64 36.5468Z" fill="#31A8FF"/>
</g>
<defs>
<clipPath id="clip0_16_21193">
<rect width="80" height="80" fill="white"/>
</clipPath>
</defs>
</svg>
