<svg viewBox="0 0 100 100" preserveAspectRatio="XMidYMid meet" xmlns="http://www.w3.org/2000/svg">
<ellipse style="fill: var(--secondary-col)" cx="41.4722" cy="58.6111" rx="40.9722" ry="41.3889"/>
<path style="fill: var(--text-col)" fill-rule="evenodd" clip-rule="evenodd" d="M52.2265 8.93879C49.8747 9.3615 47.86 10.8049 46.8528 12.789C46.0638 14.3429 46.0622 14.3698 46.0622 26.7136C46.0622 33.0435 46.028 38.2223 45.9861 38.2223C45.9442 38.2223 44.3583 37.4485 42.4617 36.5029L39.0135 34.7833L39.7035 33.8484C41.2445 31.7604 41.918 29.7444 41.918 27.2199C41.918 22.0641 38.527 17.7947 33.4144 16.5134C32.9382 16.394 31.8479 16.3093 30.8827 16.3167C27.7873 16.3407 25.4996 17.3211 23.2513 19.5873C21.8155 21.0347 20.8554 22.6707 20.3977 24.4501C19.4603 28.0936 20.4577 31.9285 23.067 34.714C23.45 35.1227 23.7355 35.48 23.7015 35.508C23.6676 35.5359 23.1996 35.8535 22.6617 36.2139C19.7507 38.1638 17.5556 41.3872 16.6833 44.993C16.499 45.7551 16.4232 47.1934 16.3649 51.0322C16.2996 55.3367 16.3253 56.2367 16.5414 57.2068C17.0009 59.2691 18.3395 61.0244 20.1953 61.9982L21.2418 62.5474L21.2849 69.378C21.3269 76.0019 21.3376 76.2213 21.6459 76.6332C21.8206 76.8668 22.155 77.2008 22.389 77.3753C22.804 77.6849 23.0094 77.6936 30.7782 77.7352L38.7422 77.7778L39.4321 77.4274C39.8417 77.2195 40.2487 76.8581 40.4338 76.5385C40.7392 76.0109 40.7465 75.7293 40.7882 62.8047C40.8116 55.5472 40.859 49.6094 40.8933 49.6094C40.9275 49.6094 42.809 50.5269 45.0742 51.6484L49.1929 53.6873L50.9795 53.6857C52.6339 53.6842 52.8331 53.6513 53.6757 53.2401C54.5547 52.8112 55.6729 51.8392 56.3106 50.9497L56.6185 50.5204L60.7202 50.565L64.8219 50.6097L60.3735 62.8228C57.9269 69.5401 55.925 75.2032 55.925 75.4074C55.925 75.9976 56.3052 76.7499 56.8233 77.1852C57.7538 77.9669 59.0693 77.8643 59.9196 76.9436C60.1755 76.6665 61.7766 72.4663 65.016 63.5747L69.7392 50.6097L70.576 50.5684L71.4128 50.5272L76.0216 63.1096C78.5565 70.0299 80.7903 76.0136 80.9857 76.4066C81.4516 77.3431 82.4078 77.8518 83.3943 77.6876C84.2513 77.545 85.1314 76.6616 85.2776 75.7971C85.3842 75.1666 85.2859 74.8872 77.9165 54.8888L76.3178 50.5506L82.8806 50.4932C88.3744 50.4452 89.5562 50.3961 90.1367 50.1917C92.5849 49.3298 94.3802 47.3965 94.9738 44.9832C95.1933 44.091 95.2223 42.3068 95.2223 29.682C95.2223 17.0572 95.1933 15.273 94.9738 14.3808C94.3808 11.9696 92.6072 10.0576 90.1367 9.16607C89.5123 8.94079 87.6088 8.91355 71.0275 8.89262C60.8988 8.88001 52.4384 8.90063 52.2265 8.93879ZM88.8553 13.6114C89.4457 13.834 90.1303 14.498 90.3869 15.0969C90.5619 15.5053 90.5991 18.0579 90.5991 29.667C90.5991 39.2375 90.5467 43.8806 90.4351 44.1752C90.2121 44.7647 89.5471 45.4482 88.9473 45.7044C88.5371 45.8797 85.7364 45.9163 72.7273 45.9163H57.003L60.0084 39.9158C63.2346 33.4745 63.3132 33.2515 62.7065 32.2581C62.2753 31.5516 61.5378 31.1451 60.6866 31.1444C59.3143 31.1434 59.2112 31.2805 56.3874 36.8645C54.9889 39.63 53.8007 41.9359 53.7469 41.9888C53.6931 42.0418 52.9822 41.7542 52.1673 41.3499L50.6854 40.615V28.0558V15.4965L51.0403 14.8264C51.2829 14.3684 51.6076 14.0442 52.0662 13.802L52.7374 13.4476H70.5794C82.811 13.4476 88.5579 13.499 88.8553 13.6114ZM57.5592 18.8393C56.1043 19.2741 55.4997 21.1279 56.4008 22.3916C57.0691 23.3287 56.5518 23.296 70.6782 23.296C82.9934 23.296 83.617 23.2826 84.129 23.0085C84.895 22.5984 85.4255 21.5262 85.2821 20.6781C85.1451 19.8681 84.4319 19.0438 83.6901 18.838C82.9887 18.6435 58.2105 18.6448 57.5592 18.8393ZM31.944 20.9841C35.4218 21.5526 37.7015 24.6298 37.2407 28.1332C37.0716 29.4178 36.5065 30.5448 35.5064 31.5919C31.9484 35.3166 25.5731 33.2737 24.7748 28.1532C24.2703 24.9171 26.4298 21.7578 29.6196 21.0656C30.8174 20.8056 30.8468 20.8046 31.944 20.9841ZM70.2317 27.4375C69.0395 27.6789 68.382 28.4837 68.382 29.7014C68.382 30.5417 68.7877 31.2639 69.4918 31.677C70.007 31.9791 70.2641 31.9902 76.8065 31.9902C84.3476 31.9902 84.2573 32.0019 84.9034 30.9439C85.4055 30.1222 85.4383 29.5439 85.0296 28.7241C84.3425 27.3455 84.5249 27.3775 77.1918 27.3484C73.6743 27.3345 70.5422 27.3745 70.2317 27.4375ZM69.7894 36.1942C68.9206 36.5787 68.3837 37.3584 68.3701 38.2549C68.3576 39.0742 68.7116 39.7813 69.3685 40.2491L69.8717 40.6075L76.2671 40.655C79.7846 40.6812 82.9623 40.6589 83.3286 40.6055C84.2304 40.4739 85.1286 39.5928 85.2815 38.6897C85.4255 37.8376 84.8967 36.7665 84.129 36.3554C83.627 36.0868 83.1497 36.0688 76.809 36.0788C73.0782 36.0848 69.9195 36.1366 69.7894 36.1942ZM36.0357 38.6095C37.4319 39.0568 52.165 46.4691 52.4415 46.8633C52.8332 47.4216 52.7483 48.0105 52.188 48.6206C51.3002 49.5877 51.2115 49.5605 44.7064 46.3186C40.8383 44.3909 38.7973 43.4544 38.4652 43.4545C37.8192 43.4549 36.995 43.8837 36.5956 44.4272C36.2797 44.8573 36.2757 45.0035 36.1994 58.9689L36.1223 73.0761L30.9983 73.1166L25.8742 73.1572V66.6076C25.8742 59.4438 25.8901 59.5792 24.9544 58.793C24.6594 58.5451 24.2148 58.3657 23.7545 58.3089C22.5936 58.1653 21.71 57.6427 21.298 56.8561C20.9507 56.1929 20.9428 56.079 20.9454 51.7011C20.9485 46.762 21.0613 45.8185 21.851 44.1336C23.2207 41.2108 25.5592 39.2725 28.7252 38.4359C29.8796 38.1308 34.9151 38.2503 36.0357 38.6095Z"/>
</svg>
