<svg viewBox="0 0 100 100" preserveAspectRatio="XMidYMid meet" xmlns="http://www.w3.org/2000/svg">
<ellipse style="fill: var(--secondary-col)" cx="41.4722" cy="58.6111" rx="40.9722" ry="41.3889"/>
<path style="fill: var(--text-col)" fill-rule="evenodd" clip-rule="evenodd" d="M80.9653 14.8382C73.5152 15.3912 66.5239 17.6498 60.9782 21.2951C57.7868 23.3928 54.0356 26.7355 51.1356 30.0656L50.4939 30.8025L45.9056 31.1621C41.2533 31.5267 40.7324 31.601 39.9232 32.0157C38.9622 32.5081 38.4157 33.2101 35.2902 37.9672C33.5813 40.5684 32.0687 42.9138 31.9292 43.1792C31.7354 43.5476 31.6747 43.872 31.6726 44.5502C31.6704 45.3153 31.7181 45.5261 32.0169 46.0692C32.4185 46.7991 33.0325 47.3315 33.7521 47.5735C34.0304 47.667 35.8465 47.9873 37.7877 48.2851C39.7289 48.5831 41.4018 48.8516 41.5051 48.882C41.6596 48.9275 41.6917 49.1219 41.6851 49.9717C41.6753 51.2437 41.9075 51.9891 42.6067 52.9306C42.8848 53.3053 45.541 56.0428 48.5092 59.0139C54.2931 64.8035 54.3863 64.8816 55.847 65.165C56.2029 65.2339 56.7962 65.2564 57.1656 65.2147C57.8013 65.1431 57.8405 65.1538 57.9012 65.4167C57.9364 65.5694 58.2047 67.2667 58.4974 69.1886C58.79 71.1106 59.1053 72.9124 59.1979 73.1926C59.4372 73.9166 59.9661 74.5351 60.6914 74.9397C61.2308 75.2405 61.4402 75.2885 62.2001 75.2863C62.8765 75.2842 63.1957 75.2233 63.5671 75.0252C63.8337 74.8832 66.1632 73.3609 68.7437 71.6424C73.467 68.4972 74.1582 67.9514 74.6495 66.9793C75.0641 66.1592 75.1386 65.6304 75.4979 60.9561L75.853 56.3364L76.5856 55.6904C76.9885 55.3352 78.077 54.2957 79.0043 53.3806C85.0548 47.41 88.5306 41.4076 90.4346 33.6412C91.3057 30.0884 91.7013 27.0019 91.8073 22.9323C91.9167 18.7311 91.6951 17.5982 90.5053 16.2729C89.8152 15.5043 88.7953 14.982 87.6714 14.8218C86.6904 14.6819 82.9462 14.6911 80.9653 14.8382ZM87.6937 18.4847C88.2283 18.8418 88.2602 19.0589 88.2499 22.2705C88.236 26.5633 87.8115 29.8624 86.7778 33.7116C85.0187 40.2627 82.0241 45.3269 76.7931 50.5967C73.5808 53.8329 70.2507 56.3354 66.462 58.3603L65.6061 58.8177L56.8245 49.9761L48.0428 41.1344L48.4905 40.2659C50.3725 36.6144 52.9786 33.0935 56.1947 29.8575C58.0783 27.9621 59.3626 26.8395 61.3105 25.3859C66.3009 21.6621 72.4865 19.347 79.5535 18.5579C81.8516 18.3013 82.1787 18.2858 84.9654 18.3C86.9131 18.31 87.4906 18.349 87.6937 18.4847ZM71.7298 25.0029C67.3854 25.5736 64.0766 29.3637 64.0845 33.7602C64.0894 36.3861 65.0388 38.58 66.9361 40.3486C67.9544 41.2978 69.6562 42.1769 71.0706 42.4844C72.2976 42.7512 74.2636 42.6685 75.4358 42.3008C78.332 41.3925 80.5577 39.0659 81.3926 36.0739C81.7198 34.9015 81.7488 32.9381 81.4566 31.7299C80.5974 28.1759 77.6635 25.5224 74.0306 25.0136C73.0444 24.8755 72.7106 24.874 71.7298 25.0029ZM73.7964 28.5683C76.5602 29.075 78.5739 31.899 78.1007 34.6042C77.6114 37.4006 75.2947 39.2478 72.4971 39.072C69.8628 38.9065 67.771 36.793 67.6336 34.1578C67.4914 31.432 69.1697 29.1875 71.7771 28.6164C72.687 28.4171 72.9385 28.4111 73.7964 28.5683ZM47.0308 35.6957C45.2134 38.6113 43.7393 41.7762 42.8374 44.6982C42.6697 45.2417 42.5781 45.3787 42.384 45.3766C42.0722 45.3731 35.4842 44.3433 35.4311 44.2898C35.3525 44.2107 41.1435 35.484 41.4158 35.2713C41.6424 35.0942 42.1684 35.0151 44.2702 34.8421C45.6873 34.7256 47.0418 34.6233 47.2803 34.6151L47.7137 34.6L47.0308 35.6957ZM54.3618 52.4719L62.1115 60.2753L61.0088 60.6428C59.5286 61.136 57.448 61.6292 56.7603 61.65L56.2008 61.6668L50.7003 56.1285L45.1997 50.5903L45.2226 49.9688C45.2482 49.2819 45.9348 46.4156 46.3292 45.3497C46.4679 44.9752 46.5883 44.6686 46.5968 44.6686C46.6052 44.6686 50.0995 48.1801 54.3618 52.4719ZM38.5524 55.4603C38.3907 55.524 36.8145 57.0265 35.0499 58.7991C31.5643 62.3005 31.4726 62.4267 31.7258 63.3736C31.8764 63.9363 32.5069 64.5273 33.0699 64.6337C33.9699 64.8037 34.0727 64.7271 37.4186 61.3866C39.1601 59.6483 40.6524 58.0605 40.7423 57.8504C41.3702 56.3835 40.0017 54.8898 38.5524 55.4603ZM71.8592 62.2284C71.7333 63.8312 71.5713 65.2536 71.4992 65.3893C71.3746 65.6236 62.5455 71.5896 62.4563 71.4998C62.4015 71.4447 61.3805 64.8226 61.3785 64.5097C61.3772 64.312 61.6174 64.1908 62.8317 63.7771C65.4534 62.8837 68.4546 61.4327 70.9314 59.8612C71.5323 59.48 72.0384 59.2009 72.056 59.2411C72.0737 59.2812 71.9852 60.6256 71.8592 62.2284ZM43.6702 60.8437C43.1604 61.1069 32.1093 72.2437 31.8385 72.7671C31.7134 73.0089 31.6111 73.3708 31.6111 73.5714C31.6111 74.1592 32.0272 74.8416 32.5492 75.1098C33.1318 75.409 33.6158 75.4121 34.1747 75.1202C34.4147 74.9948 37.1881 72.2896 40.3377 69.1087C46.5143 62.8706 46.3451 63.0765 46.1509 62.0341C45.9486 60.9491 44.662 60.3316 43.6702 60.8437ZM48.8468 66.2139C48.6527 66.3364 47.1088 67.842 45.4159 69.5599C42.8079 72.2061 42.3256 72.7495 42.2574 73.118C42.0128 74.4397 43.1633 75.575 44.4055 75.2376C45.0374 75.066 51.3114 68.7334 51.4344 68.1429C51.6046 67.3274 51.247 66.5295 50.5482 66.1657C50.0807 65.9223 49.2727 65.9452 48.8468 66.2139Z"/>
</svg>
