<svg viewBox="0 0 100 100" preserveAspectRatio="XMidYMid meet" xmlns="http://www.w3.org/2000/svg">
<ellipse style="fill: var(--secondary-col)" cx="41.4722" cy="58.6111" rx="40.9722" ry="41.3889"/>
<path style="fill: var(--text-col)" fill-rule="evenodd" clip-rule="evenodd" d="M30.407 9.2025C30.1176 9.37756 29.7716 9.7254 29.6382 9.97555C29.4066 10.4099 29.3954 11.906 29.39 43.3022C29.3845 75.3183 29.3909 76.187 29.6398 76.6744C29.7898 76.968 30.1173 77.2993 30.4326 77.4764C30.9687 77.7774 30.9849 77.7781 37.4841 77.7778C44.7458 77.7777 44.6103 77.7938 45.2414 76.8499C45.5388 76.4051 45.5472 76.3013 45.5472 73.0485V69.7044H46.8084C48.4744 69.7044 49.3202 69.5338 50.4865 68.9623C52.146 68.1493 53.362 66.4509 53.635 64.565C53.7025 64.0983 53.7577 62.7173 53.7576 61.4962C53.7573 58.9761 53.6136 58.4278 52.8025 57.8497C52.3688 57.5408 52.2304 57.5237 49.6308 57.4594C46.6714 57.3862 46.558 57.3566 45.9106 56.4901C45.4938 55.9327 45.5406 54.9113 46.0108 54.2954C46.6524 53.4551 46.8421 53.4226 51.1008 53.4226C55.4608 53.4226 55.5952 53.3939 56.1507 52.3443C56.4381 51.8014 56.4571 51.6083 56.4571 49.23V46.6945H58.3786C59.9768 46.6945 60.3789 46.6532 60.7693 46.4491C61.2759 46.1841 61.8447 45.2575 61.8447 44.6974C61.8447 44.5184 61.3026 43.0931 60.64 41.5301C58.0171 35.3422 56.8753 32.1901 56.3905 29.7985C54.1148 18.5698 44.9832 10.2715 33.5313 9.02528C31.5376 8.80824 31.0094 8.83825 30.407 9.2025ZM36.2032 13.5967C39.9715 14.5337 43.2033 16.3183 46.0638 19.0423C49.4388 22.2558 51.5201 26.0807 52.4708 30.8163C52.9076 32.9918 53.9983 36.1256 55.9717 40.8748L56.7124 42.6577H55.3367C53.7681 42.6577 53.2308 42.8511 52.7194 43.5995C52.4302 44.0228 52.4164 44.1653 52.4164 46.7144V49.3857H49.6835C45.9287 49.3857 44.8639 49.694 43.3322 51.2242C40.7611 53.7927 41.0703 58.0884 43.9845 60.2866C45.1638 61.1762 45.8869 61.3974 47.9042 61.4864L49.6552 61.5635L49.6505 62.9091C49.645 64.4513 49.4509 64.9765 48.7438 65.3625C48.3821 65.5599 47.8473 65.6117 45.5903 65.6676C42.6187 65.7412 42.5199 65.7674 41.8515 66.661C41.5913 67.0088 41.5711 67.2445 41.5316 70.3868L41.4894 73.7412H37.4573H33.425V43.4003V13.0594L34.0648 13.1418C34.4166 13.1871 35.379 13.3918 36.2032 13.5967ZM80.7687 25.5942C78.1827 25.7726 75.5277 26.684 73.2124 28.1877C71.7452 29.1406 69.693 31.1643 68.7163 32.6213C65.413 37.5489 65.0087 43.6248 67.6321 48.9148L68.4328 50.5295L67.7724 51.8751C67.4091 52.6152 66.8359 53.7311 66.4986 54.3548C66.1483 55.0027 65.8854 55.6669 65.8854 55.9043C65.8854 56.4788 66.2965 57.1967 66.842 57.5747C67.287 57.8831 67.3574 57.89 69.3873 57.8223C71.54 57.7504 73.6667 57.4178 75.0812 56.9316L75.8232 56.6765L76.9681 57.0608C79.3312 57.8542 82.44 58.0879 84.9034 57.6574C91.5385 56.4979 96.7583 51.3334 98.0916 44.6088C98.3676 43.2171 98.3304 39.914 98.0226 38.4863C97.3175 35.2145 95.7008 32.3207 93.2803 29.9982C89.91 26.7643 85.6319 25.2584 80.7687 25.5942ZM85.4696 30.0161C89.6899 31.2963 92.7613 34.4469 93.924 38.6881C94.3418 40.2124 94.3414 43.1844 93.923 44.7434C93.3079 47.036 91.7993 49.4405 90.0527 50.912C87.709 52.8865 85.1495 53.8262 82.1156 53.8262C80.4105 53.8262 79.0185 53.5601 77.4782 52.9396C76.8516 52.6872 76.1835 52.4806 75.9936 52.4806C75.8037 52.4806 75.1285 52.6573 74.4932 52.8731C73.2649 53.2905 71.7146 53.6395 71.5996 53.5246C71.5615 53.4865 71.8107 52.8273 72.1533 52.0597C72.9498 50.2756 72.9349 49.8722 72.0223 48.4675C71.1965 47.197 70.6817 46.0528 70.3065 44.6542C69.9208 43.2169 69.8876 40.4053 70.2391 38.9803C71.5115 33.824 75.9096 30.0119 81.038 29.6204C82.516 29.5075 84.3256 29.6691 85.4696 30.0161ZM42.7187 32.6586C40.5275 33.025 38.6716 34.5168 38.6801 35.9048C38.6835 36.4453 39.2222 37.2808 39.7555 37.5722C40.3677 37.907 41.3782 37.8369 41.8868 37.4242C42.9532 36.5593 43.9068 36.4482 44.7759 37.0879C45.7246 37.786 46.574 37.9868 47.206 37.6625C48.162 37.1718 48.6333 36.2128 48.3801 35.2733C47.9627 33.7245 44.8743 32.2981 42.7187 32.6586ZM87.1275 37.0629C86.8631 37.242 85.2435 38.5138 83.5282 39.889L80.4096 42.3891L79.2891 40.9975C78.1625 39.5986 77.5878 39.1591 76.8847 39.1591C75.6403 39.1591 74.6222 40.3812 74.8633 41.5855C74.9738 42.1369 78.4931 46.584 79.1226 46.9675C79.6886 47.3123 80.5121 47.3061 81.0923 46.9526C81.8425 46.4958 89.7095 40.1161 89.9211 39.793C90.2954 39.2217 90.3131 38.4746 89.9675 37.8276C89.3956 36.7573 88.0949 36.4071 87.1275 37.0629Z"/>
</svg>
