<svg viewBox="0 0 100 100" preserveAspectRatio="XMidYMid meet" xmlns="http://www.w3.org/2000/svg">
<ellipse style="fill: var(--secondary-col)" cx="40.9722" cy="58.6111" rx="40.9722" ry="41.3889"/>
<path style="fill: var(--text-col)" fill-rule="evenodd" clip-rule="evenodd" d="M23.4367 6.14804C20.8546 6.65507 18.6597 8.8951 18.1593 11.534C17.9469 12.6536 17.9469 76.3259 18.1593 77.4456C18.6716 80.1469 20.8531 82.3284 23.5544 82.8407C24.6741 83.0531 88.3464 83.0531 89.466 82.8407C92.1673 82.3284 94.3488 80.1469 94.8611 77.4456C95.0735 76.3259 95.0735 12.6536 94.8611 11.534C94.3488 8.83268 92.1673 6.65116 89.466 6.13887C88.4592 5.94785 24.4104 5.95672 23.4367 6.14804ZM89.3031 10.8003C89.6853 10.9952 90.0047 11.3147 90.1997 11.6969C90.4879 12.2618 90.5024 12.5742 90.5024 18.1623V24.0343H56.5102H22.518V18.1623C22.518 12.5765 22.5327 12.2615 22.8204 11.6975C23.0053 11.3352 23.3416 10.9892 23.6853 10.8077C24.24 10.5148 24.6858 10.5108 56.4786 10.5042C88.4912 10.4975 88.7135 10.4997 89.3031 10.8003ZM28.3479 15.3199C27.7129 15.6552 27.1806 16.5426 27.1806 17.2659C27.1806 18.0122 27.7126 18.8787 28.38 19.2193C28.91 19.4897 29.2642 19.522 31.6929 19.522C34.8576 19.522 35.364 19.3778 35.9023 18.3227C36.2859 17.5709 36.2859 16.9609 35.9023 16.2091C35.3616 15.1494 34.8614 15.0087 31.6613 15.0164C29.2204 15.0223 28.847 15.0566 28.3479 15.3199ZM41.8847 15.3199C41.2496 15.6552 40.7173 16.5426 40.7173 17.2659C40.7173 18.0122 41.2493 18.8787 41.9167 19.2193C42.4467 19.4897 42.801 19.522 45.2296 19.522C47.6582 19.522 48.0124 19.4897 48.5425 19.2193C49.2098 18.8787 49.7418 18.0122 49.7418 17.2659C49.7418 16.5196 49.2098 15.6531 48.5425 15.3126C48.0099 15.0409 47.6661 15.0105 45.198 15.0164C42.7572 15.0223 42.3837 15.0566 41.8847 15.3199ZM55.4214 15.3199C54.7864 15.6552 54.2541 16.5426 54.2541 17.2659C54.2541 18.0122 54.7861 18.8787 55.4534 19.2193C55.9835 19.4897 56.3377 19.522 58.7663 19.522C61.195 19.522 61.5492 19.4897 62.0792 19.2193C62.7466 18.8787 63.2786 18.0122 63.2786 17.2659C63.2786 16.5196 62.7466 15.6531 62.0792 15.3126C61.5466 15.0409 61.2028 15.0105 58.7347 15.0164C56.2939 15.0223 55.9205 15.0566 55.4214 15.3199ZM90.5024 52.6179C90.5024 76.446 90.4994 76.6952 90.1997 77.2827C90.0047 77.6649 89.6853 77.9843 89.3031 78.1793C88.7136 78.4799 88.4844 78.482 56.5102 78.482C24.536 78.482 24.3068 78.4799 23.7173 78.1793C23.3351 77.9843 23.0157 77.6649 22.8207 77.2827C22.521 76.6952 22.518 76.446 22.518 52.6179V28.5465H56.5102H90.5024V52.6179ZM59.9347 38.0311C59.6261 38.194 59.2598 38.5464 59.121 38.8141C58.7033 39.6193 49.7418 66.6395 49.7418 67.0937C49.7418 68.1971 50.8734 69.3071 51.998 69.3071C52.6813 69.3071 53.609 68.7742 53.8991 68.2152C54.317 67.4096 63.2786 40.3892 63.2786 39.9348C63.2786 39.2278 62.7321 38.3573 62.0792 38.0242C61.3385 37.6464 60.6594 37.6485 59.9347 38.0311ZM41.7621 42.6676C40.8948 43.2303 32.2519 51.9365 31.935 52.5667C31.5728 53.2869 31.633 53.9648 32.1268 54.7257C32.6895 55.5929 41.3957 64.2358 42.0259 64.5527C43.0439 65.0647 44.3222 64.6386 44.911 63.591C45.2916 62.9139 45.317 62.2462 44.9871 61.5912C44.8537 61.3265 43.0449 59.4008 40.9676 57.3121L37.1906 53.5143L40.9676 49.7165C43.0449 47.6278 44.8537 45.7021 44.9871 45.4374C45.4997 44.4199 45.0735 43.1411 44.0257 42.5522C43.2415 42.1115 42.566 42.146 41.7621 42.6676ZM68.9729 42.5583C67.9409 43.1566 67.5255 44.4293 68.0333 45.4374C68.1667 45.7021 69.9755 47.6278 72.0528 49.7165L75.8298 53.5143L72.0528 57.3121C69.9755 59.4008 68.1667 61.3265 68.0333 61.5912C67.7034 62.2462 67.7289 62.9139 68.1094 63.591C68.6982 64.6386 69.9765 65.0647 70.9945 64.5527C71.6247 64.2358 80.3309 55.5929 80.8936 54.7257C81.1683 54.3026 81.3276 53.8577 81.3276 53.5143C81.3276 53.1709 81.1683 52.726 80.8936 52.3029C80.3309 51.4356 71.6247 42.7927 70.9945 42.4758C70.3422 42.1476 69.6308 42.1767 68.9729 42.5583Z"/>
</svg>
