
<svg xmlns="http://www.w3.org/2000/svg" version="1.1" xmlns:xlink="http://www.w3.org/1999/xlink" preserveAspectRatio="XMidYMid meet" viewBox="0 0 500 500">
<defs>
<g id="cat_animation_22_Layer4_0_FILL">
<path style="fill: var(--card-bg-col)" stroke="none" d="
M 136.55 137.35
Q 126.75 131.85 113.9 127 67.25 110.4 1.7 110.4 0.45 110.4 -0.8 110.4 -65.35 110.7 -111.05 127 -157.65 144.15 -157.65 168.65 -157.65 192.55 -111.05 209.7 -65.35 226.55 -0.8 226.85 0.45 226.85 1.7 226.85 56.9 226.85 98.55 214.6 106.5 212.75 113.9 209.7 161.05 192.55 161.05 168.65 161.05 150.9 136.55 137.35 Z"/>
</g>

<g id="cat_animation_22_Layer1_0_FILL">
<path style="fill: var(--bg-col)" stroke="none" d="
M -0.8 226.95
Q -65.5 226.65 -111.25 209.8 -155.5435546875 193.486328125 -157.85 171.1
L -241.7 171.1 -241.7 302.35 246.75 302.35 246.75 171.1 161.2 171.1
Q 158.915234375 193.486328125 114.1 209.8 106.7 212.85 98.75 214.7 57 226.95 1.7 226.95 0.45 226.95 -0.8 226.95 Z"/>
</g>
</defs>

<g transform="matrix( 1, 0, 0, 1, 248.75,200.6) ">
<g transform="matrix( 1, 0, 0, 1, 0,0) ">
<use xlink:href="#cat_animation_22_Layer4_0_FILL"/>
</g>

<g transform="matrix( 1, 0, 0, 1, 0,0) ">
<use xlink:href="#cat_animation_22_Layer1_0_FILL"/>
</g>
</g>
</svg>
