
<svg xmlns="http://www.w3.org/2000/svg" version="1.1" xmlns:xlink="http://www.w3.org/1999/xlink" preserveAspectRatio="XMidYMid meet" viewBox="0 0 500 500">
<defs>
<g id="cat_animation_1_Layer4_0_FILL">
<path style="fill: var(--card-bg-col)" stroke="none" d="
M 24.45 159.55
Q 14.85 156.15 1.3 156.15 0.25 156.15 -0.8 156.15 -13.1 156.4 -21.95 159.55 -31.55 163.1 -31.55 168.15 -31.55 173.05 -21.95 176.6 -13.1 179.85 -0.8 180.1 0.25 180.15 1.3 180.15 12.7 180.15 21.3 177.6 22.9 177.25 24.45 176.6 34.15 173.05 34.15 168.15 34.15 164.45 29.1 161.7 27.1 160.55 24.45 159.55 Z"/>
</g>

<g id="cat_animation_1_Layer1_0_FILL">
<path style="fill: var(--bg-col)" stroke="none" d="
M -0.8 226.95
Q -65.5 226.65 -111.25 209.8 -155.5435546875 193.486328125 -157.85 171.1
L -241.7 171.1 -241.7 302.35 246.75 302.35 246.75 171.1 161.2 171.1
Q 158.915234375 193.486328125 114.1 209.8 106.7 212.85 98.75 214.7 57 226.95 1.7 226.95 0.45 226.95 -0.8 226.95 Z"/>
</g>
</defs>

<g transform="matrix( 1, 0, 0, 1, 248.75,200.6) ">
<g transform="matrix( 1, 0, 0, 1, 0,0) ">
<use xlink:href="#cat_animation_1_Layer4_0_FILL"/>
</g>

<g transform="matrix( 1, 0, 0, 1, 0,0) ">
<use xlink:href="#cat_animation_1_Layer1_0_FILL"/>
</g>
</g>
</svg>
