
<svg xmlns="http://www.w3.org/2000/svg" version="1.1" xmlns:xlink="http://www.w3.org/1999/xlink" preserveAspectRatio="XMidYMid meet" viewBox="0 0 500 500">
<defs>
<g id="cat_animation_2_Layer4_0_FILL">
<path style="fill: var(--card-bg-col)" stroke="none" d="
M 37 154.95
Q 22.2 149.7 1.35 149.7 0.25 149.7 -0.8 149.75 -20.45 149.95 -34.45 154.95 -49.25 160.4 -49.25 168.2 -49.25 175.8 -34.45 181.25 -20.45 186.45 -0.8 186.65 0.25 186.7 1.35 186.7 18.9 186.7 32.15 182.8 34.65 182.2 37 181.25 52 175.8 52 168.2 52 162.55 44.2 158.25 41.1 156.5 37 154.95 Z"/>
</g>

<g id="cat_animation_2_Layer1_0_FILL">
<path style="fill: var(--bg-col)" stroke="none" d="
M -0.8 226.95
Q -65.5 226.65 -111.25 209.8 -155.5435546875 193.486328125 -157.85 171.1
L -241.7 171.1 -241.7 302.35 246.75 302.35 246.75 171.1 161.2 171.1
Q 158.915234375 193.486328125 114.1 209.8 106.7 212.85 98.75 214.7 57 226.95 1.7 226.95 0.45 226.95 -0.8 226.95 Z"/>
</g>
</defs>

<g transform="matrix( 1, 0, 0, 1, 248.75,200.6) ">
<g transform="matrix( 1, 0, 0, 1, 0,0) ">
<use xlink:href="#cat_animation_2_Layer4_0_FILL"/>
</g>

<g transform="matrix( 1, 0, 0, 1, 0,0) ">
<use xlink:href="#cat_animation_2_Layer1_0_FILL"/>
</g>
</g>
</svg>
