
<svg xmlns="http://www.w3.org/2000/svg" version="1.1" xmlns:xlink="http://www.w3.org/1999/xlink" preserveAspectRatio="XMidYMid meet" viewBox="0 0 500 500">
<defs>
<g id="cat_animation_17_Layer4_0_FILL">
<path style="fill: var(--card-bg-col)" stroke="none" d="
M 133.85 137.95
Q 124.25 132.6 111.65 127.8 65.95 111.55 1.7 111.55 0.45 111.55 -0.8 111.55 -64.05 111.85 -108.8 127.8 -154.45 144.6 -154.45 168.65 -154.45 192.05 -108.8 208.9 -64.05 225.35 -0.8 225.65 0.45 225.65 1.7 225.65 55.8 225.65 96.6 213.7 104.4 211.85 111.65 208.9 157.85 192.05 157.85 168.65 157.85 151.25 133.85 137.95 Z"/>
</g>

<g id="cat_animation_17_Layer1_0_FILL">
<path style="fill: var(--bg-col)" stroke="none" d="
M -0.8 226.95
Q -65.5 226.65 -111.25 209.8 -155.5435546875 193.486328125 -157.85 171.1
L -241.7 171.1 -241.7 302.35 246.75 302.35 246.75 171.1 161.2 171.1
Q 158.915234375 193.486328125 114.1 209.8 106.7 212.85 98.75 214.7 57 226.95 1.7 226.95 0.45 226.95 -0.8 226.95 Z"/>
</g>
</defs>

<g transform="matrix( 1, 0, 0, 1, 248.75,200.6) ">
<g transform="matrix( 1, 0, 0, 1, 0,0) ">
<use xlink:href="#cat_animation_17_Layer4_0_FILL"/>
</g>

<g transform="matrix( 1, 0, 0, 1, 0,0) ">
<use xlink:href="#cat_animation_17_Layer1_0_FILL"/>
</g>
</g>
</svg>
