
<svg xmlns="http://www.w3.org/2000/svg" version="1.1" xmlns:xlink="http://www.w3.org/1999/xlink" preserveAspectRatio="XMidYMid meet" viewBox="0 0 500 500">
<defs>
<g id="cat_animation_14_Layer4_0_FILL">
<path style="fill: var(--card-bg-col)" stroke="none" d="
M 129 139.05
Q 119.8 133.9 107.6 129.25 63.6 113.6 1.65 113.6 0.45 113.6 -0.8 113.6 -61.7 113.9 -104.8 129.25 -148.8 145.45 -148.8 168.6 -148.8 191.2 -104.8 207.4 -61.7 223.25 -0.8 223.55 0.45 223.55 1.65 223.55 53.8 223.55 93.15 212 100.65 210.3 107.6 207.4 152.15 191.2 152.15 168.6 152.15 151.85 129 139.05 Z"/>
</g>

<g id="cat_animation_14_Layer1_0_FILL">
<path style="fill: var(--bg-col)" stroke="none" d="
M -0.8 226.95
Q -65.5 226.65 -111.25 209.8 -155.5435546875 193.486328125 -157.85 171.1
L -241.7 171.1 -241.7 302.35 246.75 302.35 246.75 171.1 161.2 171.1
Q 158.915234375 193.486328125 114.1 209.8 106.7 212.85 98.75 214.7 57 226.95 1.7 226.95 0.45 226.95 -0.8 226.95 Z"/>
</g>
</defs>

<g transform="matrix( 1, 0, 0, 1, 248.75,200.6) ">
<g transform="matrix( 1, 0, 0, 1, 0,0) ">
<use xlink:href="#cat_animation_14_Layer4_0_FILL"/>
</g>

<g transform="matrix( 1, 0, 0, 1, 0,0) ">
<use xlink:href="#cat_animation_14_Layer1_0_FILL"/>
</g>
</g>
</svg>
