
<svg xmlns="http://www.w3.org/2000/svg" version="1.1" xmlns:xlink="http://www.w3.org/1999/xlink" preserveAspectRatio="XMidYMid meet" viewBox="0 0 500 500">
<defs>
<filter id="Filter_1" x="-20%" y="-20%" width="140%" height="140%" color-interpolation-filters="sRGB">
<feColorMatrix in="SourceGraphic" type="matrix" values="1 0 0 0 0 0 1 0 0 0 0 0 1 0 0 0 0 0 0.82 0" result="result1"/>
</filter>

<g id="cat_animation_129_Layer4_0_FILL">
<path style="fill: var(--card-bg-col)" stroke="none" d="
M 136.8 137.3
Q 127 131.8 114.1 126.9 67.4 110.3 1.7 110.3 0.45 110.3 -0.8 110.3 -65.5 110.6 -111.25 126.9 -157.95 144.1 -157.95 168.65 -157.95 192.6 -111.25 209.8 -65.5 226.65 -0.8 226.95 0.45 226.95 1.7 226.95 57 226.95 98.75 214.7 106.7 212.85 114.1 209.8 161.35 192.6 161.35 168.65 161.35 150.85 136.8 137.3 Z"/>
</g>

<g id="body_0_Layer0_0_FILL">
<path style="fill: var(--bg-col)" stroke="none" d="
M 942.25 562.9
L 932.75 565.7
Q 930.7 559.1 927.5 552.4 921.15 539.05 915.45 538.6 910.35 538.2 901.5 560.8 893.3 581.8 885.55 612.75 877.55 644.65 874.4 670.1 870.9 698.7 875 708.55 881.5 724 908.2 732.15 924 736.95 949.7 739.45 978.5 742.25 997 740.8 1026.3 738.55 1034.85 726.25 1039.3 719.8 1040.25 691.1 1041.15 664.6 1038.8 631.15 1036.4 596.95 1031.9 574.1 1026.9 548.65 1021.05 547.85 1015.7 547.15 1007.1 559.15
L 999.6 571.25
Q 996 568.75 989.75 566.2 977.2 561 963.9 560.5 953.75 560.15 942.25 562.9 Z"/>
</g>

<g id="body_0_Layer0_1_FILL">
<path style="fill: var(--text-col)" stroke="none" d="
M 165.85 190.85
Q 170.3 184.45 171.5 158.75 172.5 137.15 171.05 108.15 169.6 80.1 166.4 56.25 162.5 27.5 157.35 16.25 154.4 9.75 150.65 9.25
L 150.3 9.25
Q 144.8 8.8 137.4 17.75 132.7 23.45 128.1 31.75 122.95 28.8 117.55 26.8 113.6 25.25 109.25 24.2 104.9 23.1 99.8 22.4 96.95 22.05 93.3 21.9
L 91.25 21.85
Q 86.05 21.85 81.3 22.45 77.45 22.95 72.55 23.95 67.45 25.1 63.4 26.45 60.3 17.25 56.6 10.75 50.75 0.45 44.9 0 41.7 -0.3 38.35 4.3 32.4 12.25 24.5 35.35 16.6 58.5 10.05 87.1 6.75 101.25 4.3 115.55 0.45 137.6 0 152.35
L 0 156.7
Q 0.1 167.5 2.35 172.8
L 2.4 173 3.45 175.1
Q 3.75 175.75 4.35 176.7
L 4.7 177.2
Q 13.8 191.35 40.7 198.7 55.5 202.75 78.8 204.95 83.6 205.5 88.7 205.85 116.35 207.95 134 205.55 157.9 202.35 165.85 190.85
M 167.15 161.3
Q 165.95 183.4 162.4 188.5 152.75 202.35 113.95 202.75 99.9 202.85 79.2 200.85 59.6 199 46.45 195.9 15.35 188.55 7.2 173.15
L 7.15 173.15 6.25 171.25
Q 4.15 166.3 4.25 155.25
L 4.25 153.5
Q 4.7 129.7 13.75 89.75 20 62.2 27.65 39.35 35.25 16.45 41.05 7.8 42.5 5.6 43.65 4.65 44.25 4.2 44.55 4.1 48.2 4.4 53.05 13.2 57.2 20.65 60.05 29.75 60.3 30.7 61.15 31 61.9 31.45 62.85 31.1 62.95 31 65.55 30.15 68.9 29.1 72.6 28.2 77.25 27.15 81.55 26.6 86.5 26 90.6 26
L 93.1 26.05
Q 95.95 26.1 99.5 26.55 103.75 27.1 108.2 28.25 112.3 29.3 116.8 30.95 123.6 33.6 127.65 36.4 128.5 36.95 129.4 36.7 130.35 36.45 130.8 35.65 135.15 27.35 140.4 20.8 146.55 13.1 149.95 13.35
L 150.05 13.35
Q 150.55 13.5 151.1 14.1 152.25 15.25 153.5 17.95 157.9 27.55 161.55 52.5 165.25 77.4 166.8 108.35 168.35 139.15 167.15 161.3 Z"/>
</g>

<g id="l_eye_outer_0_Layer0_0_FILL">
<path style="fill: var(--text-col)" stroke="none" d="
M 935.65 608.45
Q 935.9 605.7 934.1 603.65 932.3 601.65 929.5 601.4 926.75 601.2 924.65 602.95 922.55 604.7 922.35 607.4 922.15 610.1 923.9 612.15 925.7 614.25 928.45 614.45 931.25 614.65 933.35 612.9 935.45 611.15 935.65 608.45 Z"/>
</g>

<g id="l_eye_inner_0_Layer0_0_MEMBER_0_MEMBER_0_FILL">
<path style="fill: var(--bg-col)" stroke="none" d="
M 934.5 606.2
Q 934.6 604.8 933.85 603.75 933.05 602.75 931.8 602.65 930.55 602.55 929.6 603.45 928.65 604.35 928.55 605.75 928.45 607.15 929.25 608.2 930 609.25 931.25 609.35 932.5 609.45 933.45 608.5 934.4 607.6 934.5 606.2 Z"/>
</g>

<g id="r_eye_outer_0_Layer0_0_MEMBER_0_MEMBER_0_FILL">
<path style="fill: var(--text-col)" stroke="none" d="
M 1000.9 613.5
Q 1001.15 610.8 999.35 608.75 997.55 606.7 994.75 606.45 992 606.25 989.9 608 987.8 609.75 987.6 612.45 987.4 615.15 989.15 617.2 990.95 619.3 993.7 619.5 996.45 619.75 998.6 617.95 1000.7 616.2 1000.9 613.5 Z"/>
</g>

<g id="r_eye_inner_0_Layer0_0_MEMBER_0_MEMBER_0_FILL">
<path style="fill: var(--bg-col)" stroke="none" d="
M 1000.35 611.35
Q 1000.45 609.95 999.7 608.9 998.9 607.85 997.65 607.75 996.4 607.65 995.45 608.55 994.5 609.45 994.4 610.85 994.3 612.3 995.1 613.35 995.85 614.4 997.1 614.45 998.35 614.55 999.3 613.65 1000.25 612.75 1000.35 611.35 Z"/>
</g>

<g id="nose_0_Layer0_0_MEMBER_0_MEMBER_0_FILL">
<path style="fill: var(--text-col)" stroke="none" d="
M 960.7 611.95
Q 960.805859375 611.28515625 960.6 610.55 960.25 609.35 958.9 609.35 957.5 609.35 957.45 610.75 957.445703125 610.95234375 957.45 611.15 957.466015625 611.5126953125 957.5 611.85 957.3908203125 612.911328125 955.5 612.95 953.05 613 954.1 611.15 954.85 609.85 953.55 608.95 952.25 608.05 951.5 609.35 950.5 611.05 951.1 613.2 951.65 615.4 953.5 616.15 955.9 617.1 958.6 615.1 958.805078125 614.9443359375 959 614.75 959.019921875 614.81796875 959.05 614.85 960.75 616.6 963.2 616.4 965.6 616.2 966.7 614.25 967.8 612.3 966.8 610.15 966.15 608.8 964.7 609.5 963.3 610.15 963.95 611.5 964.7 613.15 962.6 613.15 961.0876953125 613.15 960.7 611.95 Z"/>
</g>

<g id="lines_0_Layer2_0_FILL">
<path style="fill: var(--secondary-col)" stroke="none" d="
M 42.05 20.4
Q 42.75 18.45 43.55 14.15
L 45.25 5.1
Q 41.25 3.6 36.95 2.5
L 35.85 6.55
Q 34.2 13.35 33.5 17.95 33 21.05 33.75 22.7 34.35 23.9 35.65 24.65 37 25.45 38.3 25.15 39.35 24.95 40.3 23.8 41.3 22.6 42.05 20.4 Z"/>
</g>

<g id="lines_0_Layer1_0_FILL">
<path style="fill: var(--secondary-col)" stroke="none" d="
M 9.35 9.9
L 8.75 0.65
Q 4.9 1.15 0 2.15
L 0.05 6.45
Q 0.15 11.2 0.5 16 0.8 19.1 2 20.55 2.8 21.55 4.25 22 5.8 22.45 6.95 21.85 7.95 21.4 8.6 20.05 9.25 18.65 9.45 16.35 9.55 14.65 9.35 9.9 Z"/>
</g>

<g id="lines_0_Layer0_0_FILL">
<path style="fill: var(--secondary-col)" stroke="none" d="
M 27.25 0.6
Q 23.75 0.2 20.75 0.05
L 18.7 0 18.05 4.15
Q 17 11.55 16.7 17 16.6 20.25 17.5 21.7 18.2 22.85 19.6 23.45 21 24.1 22.25 23.7 23.4 23.3 24.1 22.1 24.95 20.95 25.5 18.55 26 16.15 26.3 12.2
L 27.25 0.6 Z"/>
</g>

<g id="l_ear_0_Layer0_0_MEMBER_0_MEMBER_0_FILL">
<path style="fill: var(--secondary-col)" stroke="none" d="
M 907 568.35
Q 907.55 569.55 916.15 568.4 924.7 567.25 925.8 566 926.9 564.85 922.5 557.85 918.1 550.85 915.55 549.6 913.3 548.5 909.75 557.7 906.3 566.65 907 568.35 Z"/>
</g>

<g id="r_ear_0_Layer0_0_MEMBER_0_MEMBER_0_FILL">
<path style="fill: var(--secondary-col)" stroke="none" d="
M 1011.45 565.5
Q 1006.65 572.45 1007.7 573.65 1008.8 575.05 1016.7 577.25 1024.7 579.5 1025.25 578.25 1026 576.45 1023.5 566.5 1020.9 556.25 1018.7 557.35 1016.15 558.6 1011.45 565.5 Z"/>
</g>

<g id="l_cheek_0_Layer0_0_MEMBER_0_MEMBER_0_FILL">
<path style="fill: var(--secondary-col)" stroke="none" d="
M 929.15 623.95
Q 929.5 620.05 925.85 617 922.25 613.9 916.8 613.5 911.35 613.1 907.3 615.55 903.2 618 902.9 621.9 902.55 625.8 906.2 628.85 909.8 631.9 915.25 632.35 920.7 632.75 924.75 630.3 928.85 627.85 929.15 623.95 Z"/>
</g>

<g id="r_cheek_0_Layer0_0_MEMBER_0_MEMBER_0_FILL">
<path style="fill: var(--secondary-col)" stroke="none" d="
M 1016.4 630.75
Q 1016.75 626.8 1013.1 623.75 1009.5 620.7 1004.05 620.3 998.6 619.9 994.5 622.35 990.45 624.8 990.1 628.7 989.8 632.6 993.45 635.65 997.05 638.7 1002.5 639.1 1007.95 639.55 1012 637.1 1016.1 634.6 1016.4 630.75 Z"/>
</g>

<g id="cat_animation_129_Layer1_0_FILL">
<path style="fill: var(--bg-col)" stroke="none" d="
M -0.8 226.95
Q -65.5 226.65 -111.25 209.8 -155.5435546875 193.486328125 -157.85 171.1
L -241.7 171.1 -241.7 302.35 246.75 302.35 246.75 171.1 161.2 171.1
Q 158.915234375 193.486328125 114.1 209.8 106.7 212.85 98.75 214.7 57 226.95 1.7 226.95 0.45 226.95 -0.8 226.95 Z"/>
</g>

<g id="heart_0_Layer0_0_MEMBER_0_MEMBER_0_FILL">
<path style="fill: var(--primary-col)" stroke="none" d="
M 1002.5 493.45
Q 1001.8 493.75 1000.85 494.75 999.95 495.6 999.45 496.35 997.15 499.95 997.65 505 997.95 508.55 999.95 514.1 1000.7 516.1 1002.85 519.15 1004.05 520.85 1006.3 523.95 1008.25 523.25 1014.05 520.3 1019.75 517.35 1021.95 515.95 1026.95 512.85 1028.55 508.6 1029.3 506.7 1029.45 505.7 1029.7 504.1 1029.05 502.9 1028 501.05 1025.4 500.1 1022.85 499.15 1020.6 499.65 1018.3 500.1 1016.4 501.5 1014.4 502.95 1013.55 504.85 1014.35 500.65 1009.75 496.35 1005.4 492.25 1002.5 493.45 Z"/>
</g>

<g id="heart_0_Layer0_0_MEMBER_0_MEMBER_1_FILL">
<path style="fill: var(--text-col)" stroke="none" d="
M 581.75 276.55
Q 580.55 277.2 579.55 278.1 578.4 274.75 575 271.7 569.1 266.3 564.2 271.1 558.15 277 561.3 287 563.35 293.5 569.65 302.3 570.4 303.4 571.5 302.95 571.6 302.9 571.75 302.85 581.55 298.9 586.4 295.75 594.5 290.4 595.8 284 596.4 280.8 594.45 278.4 592.6 276.15 589 275.45 585.2 274.7 581.75 276.55
M 579.95 282.85
Q 581.15 280.7 583.65 279.65 586 278.65 588.3 278.95 590.65 279.3 591.65 280.85 592.8 282.6 591.65 285.35 589.9 289.55 584.1 292.9 577.4 296.85 571.75 299.25 568.65 294.8 567.2 292.1 564.85 287.5 564.25 282.95 563.75 279.35 564.55 276.95 565.6 273.75 568.85 273.45 572.1 273.15 574.5 276.05 576.8 278.8 576.5 282 576.4 283.4 577.8 283.75 579.25 284.05 579.95 282.85 Z"/>
</g>
</defs>

<g transform="matrix( 1, 0, 0, 1, 248.75,200.6) ">
<g transform="matrix( 1, 0, 0, 1, 0,0) ">
<use xlink:href="#cat_animation_129_Layer4_0_FILL"/>
</g>

<g transform="matrix( 1, 0, 0, 1, -0.35,308.55) ">
<g transform="matrix( 1, 0, 0, 1, -85.95,-103.4) ">
<g transform="matrix( 1, 0, 0, 1, -870.7,-536.55) ">
<use xlink:href="#body_0_Layer0_0_FILL"/>
</g>

<g transform="matrix( 1, 0, 0, 1, 0,0) ">
<use xlink:href="#body_0_Layer0_1_FILL"/>
</g>
</g>

<g transform="matrix( 1, 0, 0, 1, -34.3,-38.55) ">
<g transform="matrix( 1, 0, 0, 1, -922.35,-601.4) ">
<use xlink:href="#l_eye_outer_0_Layer0_0_FILL"/>
</g>
</g>

<g transform="matrix( 1, 0, 0, 1, -26.9,-37.05) ">
<g transform="matrix( 1, 0, 0, 1, -928.95,-602.75) ">
<use xlink:href="#l_eye_inner_0_Layer0_0_MEMBER_0_MEMBER_0_FILL"/>
</g>
</g>

<g transform="matrix( 1, 0, 0, 1, 30.95,-33.5) ">
<g transform="matrix( 1, 0, 0, 1, -987.6,-606.45) ">
<use xlink:href="#r_eye_outer_0_Layer0_0_MEMBER_0_MEMBER_0_FILL"/>
</g>
</g>

<g transform="matrix( 1, 0, 0, 1, 37.75,-32.2) ">
<g transform="matrix( 1, 0, 0, 1, -994.4,-607.75) ">
<use xlink:href="#r_eye_inner_0_Layer0_0_MEMBER_0_MEMBER_0_FILL"/>
</g>
</g>

<g transform="matrix( 1, 0, 0, 1, -5.8,-31.35) ">
<g transform="matrix( 1, 0, 0, 1, -950.85,-608.6) ">
<use xlink:href="#nose_0_Layer0_0_MEMBER_0_MEMBER_0_FILL"/>
</g>
</g>

<g transform="matrix( 1, 0, 0, 1, -13.4,-77.4) ">
<g transform="matrix( 1, 0, 0, 1, 0,0) ">
<use xlink:href="#lines_0_Layer2_0_FILL"/>
</g>

<g transform="matrix( 1, 0, 0, 1, 0,0) ">
<use xlink:href="#lines_0_Layer1_0_FILL"/>
</g>

<g transform="matrix( 1, 0, 0, 1, 0,0) ">
<use xlink:href="#lines_0_Layer0_0_FILL"/>
</g>
</g>

<g transform="matrix( 1, 0, 0, 1, -49.75,-90.45) ">
<g transform="matrix( 1, 0, 0, 1, -906.9,-549.5) ">
<use xlink:href="#l_ear_0_Layer0_0_MEMBER_0_MEMBER_0_FILL"/>
</g>
</g>

<g transform="matrix( 1, 0, 0, 1, 50.85,-82.7) ">
<g transform="matrix( 1, 0, 0, 1, -1007.5,-557.25) ">
<use xlink:href="#r_ear_0_Layer0_0_MEMBER_0_MEMBER_0_FILL"/>
</g>
</g>

<g transform="matrix( 1, 0, 0, 1, -53.8,-26.5) ">
<g transform="matrix( 1, 0, 0, 1, -902.85,-613.45) ">
<use xlink:href="#l_cheek_0_Layer0_0_MEMBER_0_MEMBER_0_FILL"/>
</g>
</g>

<g transform="matrix( 1, 0, 0, 1, 33.45,-19.7) ">
<g transform="matrix( 1, 0, 0, 1, -990.1,-620.25) ">
<use xlink:href="#r_cheek_0_Layer0_0_MEMBER_0_MEMBER_0_FILL"/>
</g>
</g>
</g>

<g transform="matrix( 1, 0, 0, 1, 0,0) ">
<use xlink:href="#cat_animation_129_Layer1_0_FILL"/>
</g>

<g transform="matrix( 1.044219970703125, 0, 0, 1.044219970703125, 93.35,-19.25) ">
<g transform="matrix( 1, 0, 0, 1, -995.45,-491.5) ">
<use filter="url(#Filter_1)" xlink:href="#heart_0_Layer0_0_MEMBER_0_MEMBER_0_FILL"/>
</g>

<g transform="matrix( 1, 0, 0, 1, -560.2,-268.85) ">
<use filter="url(#Filter_1)" xlink:href="#heart_0_Layer0_0_MEMBER_0_MEMBER_1_FILL"/>
</g>
</g>
</g>
</svg>
