
<svg xmlns="http://www.w3.org/2000/svg" version="1.1" xmlns:xlink="http://www.w3.org/1999/xlink" preserveAspectRatio="XMidYMid meet" viewBox="0 0 500 500">
<defs>
<g id="cat_animation_10_Layer4_0_FILL">
<path style="fill: var(--card-bg-col)" stroke="none" d="
M 115.55 142.1
Q 107.25 137.5 96.4 133.35 57 119.35 1.6 119.35 0.4 119.35 -0.8 119.35 -55.15 119.65 -93.6 133.35 -133 147.85 -133 168.55 -133 188.75 -93.6 203.25 -55.15 217.4 -0.8 217.7 0.4 217.7 1.6 217.7 48.25 217.7 83.45 207.35 90.15 205.8 96.4 203.25 136.25 188.75 136.25 168.55 136.25 153.55 115.55 142.1 Z"/>
</g>

<g id="cat_animation_10_Layer1_0_FILL">
<path style="fill: var(--bg-col)" stroke="none" d="
M -0.8 226.95
Q -65.5 226.65 -111.25 209.8 -155.5435546875 193.486328125 -157.85 171.1
L -241.7 171.1 -241.7 302.35 246.75 302.35 246.75 171.1 161.2 171.1
Q 158.915234375 193.486328125 114.1 209.8 106.7 212.85 98.75 214.7 57 226.95 1.7 226.95 0.45 226.95 -0.8 226.95 Z"/>
</g>
</defs>

<g transform="matrix( 1, 0, 0, 1, 248.75,200.6) ">
<g transform="matrix( 1, 0, 0, 1, 0,0) ">
<use xlink:href="#cat_animation_10_Layer4_0_FILL"/>
</g>

<g transform="matrix( 1, 0, 0, 1, 0,0) ">
<use xlink:href="#cat_animation_10_Layer1_0_FILL"/>
</g>
</g>
</svg>
