
<svg xmlns="http://www.w3.org/2000/svg" version="1.1" xmlns:xlink="http://www.w3.org/1999/xlink" preserveAspectRatio="XMidYMid meet" viewBox="0 0 500 500">
<defs>
<g id="cat_animation_13_Layer4_0_FILL">
<path style="fill: var(--card-bg-col)" stroke="none" d="
M 126.55 139.6
Q 117.5 134.55 105.55 130 62.4 114.65 1.65 114.65 0.45 114.65 -0.8 114.65 -60.5 114.95 -102.75 130 -145.9 145.9 -145.9 168.6 -145.9 190.75 -102.75 206.65 -60.5 222.2 -0.8 222.5 0.45 222.5 1.65 222.5 52.8 222.5 91.35 211.15 98.7 209.45 105.55 206.65 149.25 190.75 149.25 168.6 149.25 152.15 126.55 139.6 Z"/>
</g>

<g id="cat_animation_13_Layer1_0_FILL">
<path style="fill: var(--bg-col)" stroke="none" d="
M -0.8 226.95
Q -65.5 226.65 -111.25 209.8 -155.5435546875 193.486328125 -157.85 171.1
L -241.7 171.1 -241.7 302.35 246.75 302.35 246.75 171.1 161.2 171.1
Q 158.915234375 193.486328125 114.1 209.8 106.7 212.85 98.75 214.7 57 226.95 1.7 226.95 0.45 226.95 -0.8 226.95 Z"/>
</g>
</defs>

<g transform="matrix( 1, 0, 0, 1, 248.75,200.6) ">
<g transform="matrix( 1, 0, 0, 1, 0,0) ">
<use xlink:href="#cat_animation_13_Layer4_0_FILL"/>
</g>

<g transform="matrix( 1, 0, 0, 1, 0,0) ">
<use xlink:href="#cat_animation_13_Layer1_0_FILL"/>
</g>
</g>
</svg>
