
<svg xmlns="http://www.w3.org/2000/svg" version="1.1" xmlns:xlink="http://www.w3.org/1999/xlink" preserveAspectRatio="XMidYMid meet" viewBox="0 0 500 500">
<defs>
<g id="cat_animation_21_Layer4_0_FILL">
<path style="fill: var(--card-bg-col)" stroke="none" d="
M 136.3 137.4
Q 126.55 131.95 113.7 127.05 67.15 110.5 1.7 110.5 0.45 110.5 -0.8 110.5 -65.25 110.8 -110.85 127.05 -157.4 144.2 -157.4 168.65 -157.4 192.5 -110.85 209.65 -65.25 226.45 -0.8 226.75 0.45 226.75 1.7 226.75 56.8 226.75 98.4 214.55 106.3 212.7 113.7 209.65 160.8 192.5 160.8 168.65 160.8 150.9 136.3 137.4 Z"/>
</g>

<g id="cat_animation_21_Layer1_0_FILL">
<path style="fill: var(--bg-col)" stroke="none" d="
M -0.8 226.95
Q -65.5 226.65 -111.25 209.8 -155.5435546875 193.486328125 -157.85 171.1
L -241.7 171.1 -241.7 302.35 246.75 302.35 246.75 171.1 161.2 171.1
Q 158.915234375 193.486328125 114.1 209.8 106.7 212.85 98.75 214.7 57 226.95 1.7 226.95 0.45 226.95 -0.8 226.95 Z"/>
</g>
</defs>

<g transform="matrix( 1, 0, 0, 1, 248.75,200.6) ">
<g transform="matrix( 1, 0, 0, 1, 0,0) ">
<use xlink:href="#cat_animation_21_Layer4_0_FILL"/>
</g>

<g transform="matrix( 1, 0, 0, 1, 0,0) ">
<use xlink:href="#cat_animation_21_Layer1_0_FILL"/>
</g>
</g>
</svg>
