
<svg xmlns="http://www.w3.org/2000/svg" version="1.1" xmlns:xlink="http://www.w3.org/1999/xlink" preserveAspectRatio="XMidYMid meet" viewBox="0 0 500 500">
<defs>
<g id="cat_animation_6_Layer4_0_FILL">
<path style="fill: var(--card-bg-col)" stroke="none" d="
M 74.6 141.3
Q 44.25 130.5 1.55 130.5 0.35 130.5 -0.8 130.5 -42.4 130.8 -71.9 141.3 -102.25 152.45 -102.25 168.4 -102.25 184 -71.9 195.15 -42.4 206.05 -0.8 206.3 0.35 206.3 1.55 206.3 37.45 206.3 64.6 198.35 69.75 197.15 74.6 195.15 105.3 184 105.3 168.4 105.3 156.85 89.35 148.05 82.95 144.45 74.6 141.3 Z"/>
</g>

<g id="cat_animation_6_Layer1_0_FILL">
<path style="fill: var(--bg-col)" stroke="none" d="
M -0.8 226.95
Q -65.5 226.65 -111.25 209.8 -155.5435546875 193.486328125 -157.85 171.1
L -241.7 171.1 -241.7 302.35 246.75 302.35 246.75 171.1 161.2 171.1
Q 158.915234375 193.486328125 114.1 209.8 106.7 212.85 98.75 214.7 57 226.95 1.7 226.95 0.45 226.95 -0.8 226.95 Z"/>
</g>
</defs>

<g transform="matrix( 1, 0, 0, 1, 248.75,200.6) ">
<g transform="matrix( 1, 0, 0, 1, 0,0) ">
<use xlink:href="#cat_animation_6_Layer4_0_FILL"/>
</g>

<g transform="matrix( 1, 0, 0, 1, 0,0) ">
<use xlink:href="#cat_animation_6_Layer1_0_FILL"/>
</g>
</g>
</svg>
