
<svg xmlns="http://www.w3.org/2000/svg" version="1.1" xmlns:xlink="http://www.w3.org/1999/xlink" preserveAspectRatio="XMidYMid meet" viewBox="0 0 500 500">
<defs>
<g id="cat_animation_19_Layer4_0_FILL">
<path style="fill: var(--card-bg-col)" stroke="none" d="
M 135.45 137.6
Q 125.75 132.15 113 127.3 66.75 110.85 1.7 110.85 0.45 110.85 -0.8 110.85 -64.85 111.15 -110.15 127.3 -156.4 144.35 -156.4 168.65 -156.4 192.35 -110.15 209.4 -64.85 226.05 -0.8 226.35 0.45 226.35 1.7 226.35 56.45 226.35 97.8 214.25 105.65 212.4 113 209.4 159.8 192.35 159.8 168.65 159.8 151 135.45 137.6 Z"/>
</g>

<g id="cat_animation_19_Layer1_0_FILL">
<path style="fill: var(--bg-col)" stroke="none" d="
M -0.8 226.95
Q -65.5 226.65 -111.25 209.8 -155.5435546875 193.486328125 -157.85 171.1
L -241.7 171.1 -241.7 302.35 246.75 302.35 246.75 171.1 161.2 171.1
Q 158.915234375 193.486328125 114.1 209.8 106.7 212.85 98.75 214.7 57 226.95 1.7 226.95 0.45 226.95 -0.8 226.95 Z"/>
</g>
</defs>

<g transform="matrix( 1, 0, 0, 1, 248.75,200.6) ">
<g transform="matrix( 1, 0, 0, 1, 0,0) ">
<use xlink:href="#cat_animation_19_Layer4_0_FILL"/>
</g>

<g transform="matrix( 1, 0, 0, 1, 0,0) ">
<use xlink:href="#cat_animation_19_Layer1_0_FILL"/>
</g>
</g>
</svg>
