
<svg xmlns="http://www.w3.org/2000/svg" version="1.1" xmlns:xlink="http://www.w3.org/1999/xlink" preserveAspectRatio="XMidYMid meet" viewBox="0 0 500 500">
<defs>
<g id="cat_animation_0_Layer4_0_FILL">
<path style="fill: var(--card-bg-col)" stroke="none" d="
M 10.4 171.4
Q 14.25 170 14.25 168.05 14.25 166.6 12.25 165.5 11.45 165.05 10.4 164.65 6.6 163.3 1.25 163.3 0.2 163.3 -0.8 163.35 -4.9 163.55 -7.95 164.65 -11.75 166.05 -11.75 168.05 -11.75 170 -7.95 171.4 -4.9 172.55 -0.8 172.75 0.2 172.8 1.25 172.8 5.75 172.8 9.15 171.8 9.8 171.65 10.4 171.4 Z"/>
</g>

<g id="cat_animation_0_Layer1_0_FILL">
<path style="fill: var(--bg-col)" stroke="none" d="
M -0.8 226.95
Q -65.5 226.65 -111.25 209.8 -155.5435546875 193.486328125 -157.85 171.1
L -241.7 171.1 -241.7 302.35 246.75 302.35 246.75 171.1 161.2 171.1
Q 158.915234375 193.486328125 114.1 209.8 106.7 212.85 98.75 214.7 57 226.95 1.7 226.95 0.45 226.95 -0.8 226.95 Z"/>
</g>
</defs>

<g transform="matrix( 1, 0, 0, 1, 248.75,200.6) ">
<g transform="matrix( 1, 0, 0, 1, 0,0) ">
<use xlink:href="#cat_animation_0_Layer4_0_FILL"/>
</g>

<g transform="matrix( 1, 0, 0, 1, 0,0) ">
<use xlink:href="#cat_animation_0_Layer1_0_FILL"/>
</g>
</g>
</svg>
