
<svg xmlns="http://www.w3.org/2000/svg" version="1.1" xmlns:xlink="http://www.w3.org/1999/xlink" preserveAspectRatio="XMidYMid meet" viewBox="0 0 500 500">
<defs>
<g id="cat_animation_16_Layer4_0_FILL">
<path style="fill: var(--card-bg-col)" stroke="none" d="
M 132.6 138.25
Q 123.1 132.9 110.6 128.15 65.35 112.1 1.7 112.1 0.45 112.1 -0.8 112.1 -63.45 112.4 -107.75 128.15 -153 144.85 -153 168.65 -153 191.85 -107.75 208.5 -63.45 224.8 -0.8 225.1 0.45 225.1 1.7 225.1 55.25 225.1 95.75 213.25 103.45 211.45 110.6 208.5 156.4 191.85 156.4 168.65 156.4 151.4 132.6 138.25 Z"/>
</g>

<g id="cat_animation_16_Layer1_0_FILL">
<path style="fill: var(--bg-col)" stroke="none" d="
M -0.8 226.95
Q -65.5 226.65 -111.25 209.8 -155.5435546875 193.486328125 -157.85 171.1
L -241.7 171.1 -241.7 302.35 246.75 302.35 246.75 171.1 161.2 171.1
Q 158.915234375 193.486328125 114.1 209.8 106.7 212.85 98.75 214.7 57 226.95 1.7 226.95 0.45 226.95 -0.8 226.95 Z"/>
</g>
</defs>

<g transform="matrix( 1, 0, 0, 1, 248.75,200.6) ">
<g transform="matrix( 1, 0, 0, 1, 0,0) ">
<use xlink:href="#cat_animation_16_Layer4_0_FILL"/>
</g>

<g transform="matrix( 1, 0, 0, 1, 0,0) ">
<use xlink:href="#cat_animation_16_Layer1_0_FILL"/>
</g>
</g>
</svg>
