
<svg xmlns="http://www.w3.org/2000/svg" version="1.1" xmlns:xlink="http://www.w3.org/1999/xlink" preserveAspectRatio="XMidYMid meet" viewBox="0 0 500 500">
<defs>
<g id="cat_animation_18_Layer4_0_FILL">
<path style="fill: var(--card-bg-col)" stroke="none" d="
M 134.75 137.75
Q 125.1 132.35 112.4 127.5 66.4 111.15 1.7 111.15 0.45 111.15 -0.8 111.15 -64.5 111.45 -109.55 127.5 -155.55 144.45 -155.55 168.65 -155.55 192.25 -109.55 209.15 -64.5 225.75 -0.8 226.05 0.45 226.05 1.7 226.05 56.15 226.05 97.3 214 105.1 212.2 112.4 209.15 158.95 192.25 158.95 168.65 158.95 151.1 134.75 137.75 Z"/>
</g>

<g id="cat_animation_18_Layer1_0_FILL">
<path style="fill: var(--bg-col)" stroke="none" d="
M -0.8 226.95
Q -65.5 226.65 -111.25 209.8 -155.5435546875 193.486328125 -157.85 171.1
L -241.7 171.1 -241.7 302.35 246.75 302.35 246.75 171.1 161.2 171.1
Q 158.915234375 193.486328125 114.1 209.8 106.7 212.85 98.75 214.7 57 226.95 1.7 226.95 0.45 226.95 -0.8 226.95 Z"/>
</g>
</defs>

<g transform="matrix( 1, 0, 0, 1, 248.75,200.6) ">
<g transform="matrix( 1, 0, 0, 1, 0,0) ">
<use xlink:href="#cat_animation_18_Layer4_0_FILL"/>
</g>

<g transform="matrix( 1, 0, 0, 1, 0,0) ">
<use xlink:href="#cat_animation_18_Layer1_0_FILL"/>
</g>
</g>
</svg>
