
<svg xmlns="http://www.w3.org/2000/svg" version="1.1" xmlns:xlink="http://www.w3.org/1999/xlink" preserveAspectRatio="XMidYMid meet" viewBox="0 0 500 500">
<defs>
<g id="cat_animation_5_Layer4_0_FILL">
<path style="fill: var(--card-bg-col)" stroke="none" d="
M 57.95 195.15
Q 62.6 194.1 66.9 192.3 94.4 182.3 94.4 168.4 94.4 158 80.1 150.15 74.4 146.95 66.9 144.1 39.7 134.45 1.5 134.45 0.35 134.45 -0.8 134.45 -37.9 134.7 -64.2 144.1 -91.4 154.1 -91.4 168.4 -91.4 182.3 -64.2 192.3 -37.9 202 -0.8 202.25 0.35 202.3 1.5 202.3 33.65 202.3 57.95 195.15 Z"/>
</g>

<g id="cat_animation_5_Layer1_0_FILL">
<path style="fill: var(--bg-col)" stroke="none" d="
M -0.8 226.95
Q -65.5 226.65 -111.25 209.8 -155.5435546875 193.486328125 -157.85 171.1
L -241.7 171.1 -241.7 302.35 246.75 302.35 246.75 171.1 161.2 171.1
Q 158.915234375 193.486328125 114.1 209.8 106.7 212.85 98.75 214.7 57 226.95 1.7 226.95 0.45 226.95 -0.8 226.95 Z"/>
</g>
</defs>

<g transform="matrix( 1, 0, 0, 1, 248.75,200.6) ">
<g transform="matrix( 1, 0, 0, 1, 0,0) ">
<use xlink:href="#cat_animation_5_Layer4_0_FILL"/>
</g>

<g transform="matrix( 1, 0, 0, 1, 0,0) ">
<use xlink:href="#cat_animation_5_Layer1_0_FILL"/>
</g>
</g>
</svg>
