
<svg xmlns="http://www.w3.org/2000/svg" version="1.1" xmlns:xlink="http://www.w3.org/1999/xlink" preserveAspectRatio="XMidYMid meet" viewBox="0 0 500 500">
<defs>
<g id="cat_animation_3_Layer4_0_FILL">
<path style="fill: var(--card-bg-col)" stroke="none" d="
M 57.65 155.2
Q 53.55 152.95 48.2 150.9 28.75 144 1.4 144 0.3 144 -0.8 144 -27 144.25 -45.6 150.9 -65.05 158.05 -65.05 168.25 -65.05 178.25 -45.6 185.4 -27 192.25 -0.8 192.5 0.3 192.55 1.4 192.55 24.45 192.55 41.8 187.45 45.1 186.65 48.2 185.4 67.85 178.25 67.85 168.25 67.85 160.85 57.65 155.2 Z"/>
</g>

<g id="cat_animation_3_Layer1_0_FILL">
<path style="fill: var(--bg-col)" stroke="none" d="
M -0.8 226.95
Q -65.5 226.65 -111.25 209.8 -155.5435546875 193.486328125 -157.85 171.1
L -241.7 171.1 -241.7 302.35 246.75 302.35 246.75 171.1 161.2 171.1
Q 158.915234375 193.486328125 114.1 209.8 106.7 212.85 98.75 214.7 57 226.95 1.7 226.95 0.45 226.95 -0.8 226.95 Z"/>
</g>
</defs>

<g transform="matrix( 1, 0, 0, 1, 248.75,200.6) ">
<g transform="matrix( 1, 0, 0, 1, 0,0) ">
<use xlink:href="#cat_animation_3_Layer4_0_FILL"/>
</g>

<g transform="matrix( 1, 0, 0, 1, 0,0) ">
<use xlink:href="#cat_animation_3_Layer1_0_FILL"/>
</g>
</g>
</svg>
