
<svg xmlns="http://www.w3.org/2000/svg" version="1.1" xmlns:xlink="http://www.w3.org/1999/xlink" preserveAspectRatio="XMidYMid meet" viewBox="0 0 500 500">
<defs>
<g id="cat_animation_9_Layer4_0_FILL">
<path style="fill: var(--card-bg-col)" stroke="none" d="
M 110.4 143.3
Q 102.5 138.85 92.1 134.9 54.5 121.55 1.6 121.55 0.4 121.55 -0.8 121.55 -52.65 121.85 -89.35 134.9 -126.95 148.75 -126.95 168.5 -126.95 187.8 -89.35 201.65 -52.65 215.2 -0.8 215.45 0.4 215.45 1.6 215.45 46.15 215.45 79.75 205.6 86.15 204.1 92.1 201.65 130.15 187.8 130.15 168.5 130.15 154.2 110.4 143.3 Z"/>
</g>

<g id="cat_animation_9_Layer1_0_FILL">
<path style="fill: var(--bg-col)" stroke="none" d="
M -0.8 226.95
Q -65.5 226.65 -111.25 209.8 -155.5435546875 193.486328125 -157.85 171.1
L -241.7 171.1 -241.7 302.35 246.75 302.35 246.75 171.1 161.2 171.1
Q 158.915234375 193.486328125 114.1 209.8 106.7 212.85 98.75 214.7 57 226.95 1.7 226.95 0.45 226.95 -0.8 226.95 Z"/>
</g>
</defs>

<g transform="matrix( 1, 0, 0, 1, 248.75,200.6) ">
<g transform="matrix( 1, 0, 0, 1, 0,0) ">
<use xlink:href="#cat_animation_9_Layer4_0_FILL"/>
</g>

<g transform="matrix( 1, 0, 0, 1, 0,0) ">
<use xlink:href="#cat_animation_9_Layer1_0_FILL"/>
</g>
</g>
</svg>
