
<svg xmlns="http://www.w3.org/2000/svg" version="1.1" xmlns:xlink="http://www.w3.org/1999/xlink" preserveAspectRatio="XMidYMid meet" viewBox="0 0 500 500">
<defs>
<g id="cat_animation_7_Layer4_0_FILL">
<path style="fill: var(--card-bg-col)" stroke="none" d="
M 97.4 146.2
Q 90.45 142.3 81.3 138.85 48.15 127.05 1.55 127.05 0.35 127.05 -0.8 127.1 -46.35 127.35 -78.55 138.85 -111.7 151.05 -111.7 168.45 -111.7 185.45 -78.55 197.65 -46.35 209.55 -0.8 209.8 0.35 209.8 1.55 209.8 40.8 209.8 70.4 201.15 76.05 199.8 81.3 197.65 114.8 185.45 114.8 168.45 114.8 155.85 97.4 146.2 Z"/>
</g>

<g id="cat_animation_7_Layer1_0_FILL">
<path style="fill: var(--bg-col)" stroke="none" d="
M -0.8 226.95
Q -65.5 226.65 -111.25 209.8 -155.5435546875 193.486328125 -157.85 171.1
L -241.7 171.1 -241.7 302.35 246.75 302.35 246.75 171.1 161.2 171.1
Q 158.915234375 193.486328125 114.1 209.8 106.7 212.85 98.75 214.7 57 226.95 1.7 226.95 0.45 226.95 -0.8 226.95 Z"/>
</g>
</defs>

<g transform="matrix( 1, 0, 0, 1, 248.75,200.6) ">
<g transform="matrix( 1, 0, 0, 1, 0,0) ">
<use xlink:href="#cat_animation_7_Layer4_0_FILL"/>
</g>

<g transform="matrix( 1, 0, 0, 1, 0,0) ">
<use xlink:href="#cat_animation_7_Layer1_0_FILL"/>
</g>
</g>
</svg>
